<svg width="500" height="500" viewBox="0 0 500 500" fill="none" xmlns="http://www.w3.org/2000/svg">
<path d="M0 9.99999C0 4.47714 4.47715 0 10 0H397.261C399.367 0 401.418 0.664414 403.124 1.89858L495.862 69.0059C498.461 70.8864 500 73.8995 500 77.1073V490C500 495.523 495.523 500 490 500H9.99999C4.47714 500 0 495.523 0 490V9.99999Z" fill="#FFC870"/>
<path d="M402.656 3.64136C402.594 2.79376 403.551 2.26031 404.24 2.75843L494.578 68.1098C495.295 68.6284 495.035 69.7541 494.163 69.9053L409.657 84.5613C409.075 84.6624 408.532 84.2385 408.489 83.6487L402.656 3.64136Z" fill="#D9D9D9"/>
<path d="M73.2386 55.6364V92H68.9773L49.1619 63.4489H48.8068V92H44.4034V55.6364H48.6648L68.5511 84.2585H68.9062V55.6364H73.2386ZM92.5613 92.5682C90.0991 92.5682 87.9389 91.9822 86.0804 90.8104C84.2338 89.6385 82.7897 87.9991 81.748 85.892C80.7182 83.785 80.2033 81.3229 80.2033 78.5057C80.2033 75.6648 80.7182 73.1849 81.748 71.0661C82.7897 68.9472 84.2338 67.3018 86.0804 66.13C87.9389 64.9581 90.0991 64.3722 92.5613 64.3722C95.0234 64.3722 97.1777 64.9581 99.0243 66.13C100.883 67.3018 102.327 68.9472 103.357 71.0661C104.398 73.1849 104.919 75.6648 104.919 78.5057C104.919 81.3229 104.398 83.785 103.357 85.892C102.327 87.9991 100.883 89.6385 99.0243 90.8104C97.1777 91.9822 95.0234 92.5682 92.5613 92.5682ZM92.5613 88.804C94.4315 88.804 95.9703 88.3246 97.1777 87.3658C98.3851 86.407 99.2788 85.1463 99.8588 83.5838C100.439 82.0213 100.729 80.3286 100.729 78.5057C100.729 76.6828 100.439 74.9841 99.8588 73.4098C99.2788 71.8355 98.3851 70.563 97.1777 69.5923C95.9703 68.6217 94.4315 68.1364 92.5613 68.1364C90.691 68.1364 89.1522 68.6217 87.9448 69.5923C86.7374 70.563 85.8437 71.8355 85.2637 73.4098C84.6837 74.9841 84.3936 76.6828 84.3936 78.5057C84.3936 80.3286 84.6837 82.0213 85.2637 83.5838C85.8437 85.1463 86.7374 86.407 87.9448 87.3658C89.1522 88.3246 90.691 88.804 92.5613 88.804ZM123.176 64.7273V68.2784H109.043V64.7273H123.176ZM113.162 58.1932H117.353V84.1875C117.353 85.3712 117.524 86.259 117.868 86.8509C118.223 87.4309 118.672 87.8215 119.217 88.0227C119.773 88.2121 120.359 88.3068 120.975 88.3068C121.436 88.3068 121.815 88.2831 122.111 88.2358C122.407 88.1766 122.644 88.1293 122.821 88.0938L123.674 91.858C123.39 91.9645 122.993 92.071 122.484 92.1776C121.975 92.2959 121.33 92.3551 120.549 92.3551C119.365 92.3551 118.205 92.1006 117.069 91.5916C115.944 91.0826 115.009 90.3073 114.263 89.2656C113.529 88.224 113.162 86.91 113.162 85.3239V58.1932ZM140.621 92.5682C137.994 92.5682 135.727 91.9882 133.821 90.8281C131.927 89.6562 130.465 88.0227 129.435 85.9276C128.417 83.8205 127.908 81.3703 127.908 78.5767C127.908 75.7831 128.417 73.321 129.435 71.1903C130.465 69.0478 131.897 67.3788 133.732 66.1832C135.579 64.9759 137.733 64.3722 140.195 64.3722C141.616 64.3722 143.018 64.6089 144.403 65.0824C145.788 65.5559 147.049 66.3253 148.185 67.3906C149.322 68.4441 150.227 69.8409 150.902 71.581C151.577 73.321 151.914 75.4635 151.914 78.0085V79.7841H130.891V76.1619H147.653C147.653 74.6231 147.345 73.25 146.729 72.0426C146.126 70.8352 145.262 69.8823 144.137 69.1839C143.024 68.4856 141.71 68.1364 140.195 68.1364C138.526 68.1364 137.082 68.5507 135.863 69.3793C134.656 70.196 133.726 71.2614 133.075 72.5753C132.424 73.8892 132.099 75.2978 132.099 76.8011V79.2159C132.099 81.2756 132.454 83.0215 133.164 84.4538C133.886 85.8743 134.886 86.9574 136.165 87.7031C137.443 88.437 138.929 88.804 140.621 88.804C141.722 88.804 142.717 88.6501 143.604 88.3423C144.504 88.0227 145.279 87.5492 145.93 86.9219C146.581 86.2827 147.085 85.4896 147.44 84.5426L151.488 85.679C151.062 87.0521 150.346 88.2595 149.339 89.3011C148.333 90.331 147.09 91.1359 145.611 91.7159C144.131 92.2841 142.468 92.5682 140.621 92.5682ZM158.857 55.6364H164.112L176.47 85.821H176.896L189.254 55.6364H194.51V92H190.391V64.3722H190.036L178.672 92H174.695L163.331 64.3722H162.976V92H158.857V55.6364ZM210.796 92.6392C209.068 92.6392 207.5 92.3137 206.091 91.6626C204.682 90.9998 203.564 90.0469 202.735 88.804C201.907 87.5492 201.492 86.0341 201.492 84.2585C201.492 82.696 201.8 81.4295 202.416 80.4588C203.031 79.4763 203.854 78.7069 204.884 78.1506C205.914 77.5942 207.05 77.1799 208.293 76.9077C209.548 76.6236 210.808 76.3987 212.075 76.233C213.732 76.0199 215.075 75.8601 216.105 75.7536C217.147 75.6352 217.905 75.4399 218.378 75.1676C218.863 74.8954 219.106 74.4219 219.106 73.7472V73.6051C219.106 71.8532 218.627 70.492 217.668 69.5213C216.721 68.5507 215.283 68.0653 213.353 68.0653C211.353 68.0653 209.784 68.5033 208.648 69.3793C207.512 70.2552 206.713 71.1903 206.251 72.1847L202.274 70.7642C202.984 69.107 203.931 67.8168 205.115 66.8935C206.31 65.9583 207.612 65.3073 209.021 64.9403C210.441 64.5616 211.838 64.3722 213.211 64.3722C214.087 64.3722 215.093 64.4787 216.23 64.6918C217.378 64.893 218.485 65.3132 219.55 65.9524C220.627 66.5916 221.521 67.5563 222.231 68.8466C222.941 70.1368 223.296 71.8651 223.296 74.0312V92H219.106V88.3068H218.893C218.609 88.8987 218.135 89.532 217.472 90.2067C216.81 90.8814 215.928 91.4555 214.827 91.929C213.726 92.4025 212.383 92.6392 210.796 92.6392ZM211.436 88.875C213.093 88.875 214.49 88.5495 215.626 87.8984C216.774 87.2474 217.638 86.407 218.218 85.3771C218.81 84.3473 219.106 83.2642 219.106 82.1278V78.2926C218.928 78.5057 218.538 78.701 217.934 78.8786C217.342 79.0443 216.656 79.1922 215.874 79.3224C215.105 79.4408 214.353 79.5473 213.619 79.642C212.897 79.7249 212.311 79.7959 211.862 79.8551C210.773 79.9972 209.755 80.228 208.808 80.5476C207.873 80.8554 207.115 81.3229 206.535 81.9503C205.967 82.5658 205.683 83.4062 205.683 84.4716C205.683 85.9276 206.221 87.0284 207.298 87.7741C208.387 88.508 209.767 88.875 211.436 88.875ZM235.135 75.5938V92H230.945V64.7273H234.993V68.9886H235.348C235.987 67.6037 236.958 66.491 238.26 65.6506C239.562 64.7983 241.243 64.3722 243.303 64.3722C245.149 64.3722 246.765 64.7509 248.15 65.5085C249.535 66.2543 250.612 67.3906 251.381 68.9176C252.151 70.4328 252.536 72.3504 252.536 74.6705V92H248.345V74.9545C248.345 72.812 247.789 71.143 246.676 69.9474C245.563 68.7401 244.036 68.1364 242.095 68.1364C240.758 68.1364 239.562 68.4264 238.509 69.0064C237.467 69.5864 236.644 70.4328 236.04 71.5455C235.437 72.6581 235.135 74.0076 235.135 75.5938Z" fill="black"/>
<path d="M42.2017 213.818H44.8295L51.0085 228.911H51.2216L57.4006 213.818H60.0284V232H57.9688V218.186H57.7912L52.1094 232H50.1207L44.4389 218.186H44.2614V232H42.2017V213.818ZM68.1716 232.32C67.3075 232.32 66.5233 232.157 65.819 231.831C65.1147 231.5 64.5554 231.023 64.1411 230.402C63.7268 229.775 63.5196 229.017 63.5196 228.129C63.5196 227.348 63.6735 226.715 63.9813 226.229C64.289 225.738 64.7004 225.353 65.2153 225.075C65.7302 224.797 66.2984 224.59 66.9198 224.454C67.5472 224.312 68.1775 224.199 68.8108 224.116C69.6394 224.01 70.3112 223.93 70.8261 223.877C71.3469 223.818 71.7257 223.72 71.9624 223.584C72.2051 223.448 72.3264 223.211 72.3264 222.874V222.803C72.3264 221.927 72.0867 221.246 71.6073 220.761C71.1338 220.275 70.4147 220.033 69.45 220.033C68.4498 220.033 67.6656 220.252 67.0974 220.69C66.5292 221.128 66.1297 221.595 65.8989 222.092L63.9102 221.382C64.2654 220.554 64.7388 219.908 65.3307 219.447C65.9285 218.979 66.5795 218.654 67.2838 218.47C67.9941 218.281 68.6924 218.186 69.379 218.186C69.817 218.186 70.32 218.239 70.8882 218.346C71.4623 218.446 72.0157 218.657 72.5484 218.976C73.087 219.296 73.5338 219.778 73.8889 220.423C74.2441 221.068 74.4216 221.933 74.4216 223.016V232H72.3264V230.153H72.2199C72.0779 230.449 71.8411 230.766 71.5097 231.103C71.1782 231.441 70.7373 231.728 70.1869 231.964C69.6365 232.201 68.9647 232.32 68.1716 232.32ZM68.4912 230.438C69.3198 230.438 70.0182 230.275 70.5864 229.949C71.1605 229.624 71.5925 229.203 71.8825 228.689C72.1785 228.174 72.3264 227.632 72.3264 227.064V225.146C72.2377 225.253 72.0423 225.35 71.7405 225.439C71.4446 225.522 71.1013 225.596 70.7107 225.661C70.326 225.72 69.9501 225.774 69.5832 225.821C69.2222 225.862 68.9292 225.898 68.7043 225.928C68.1598 225.999 67.6508 226.114 67.1773 226.274C66.7097 226.428 66.3309 226.661 66.0409 226.975C65.7568 227.283 65.6148 227.703 65.6148 228.236C65.6148 228.964 65.8841 229.514 66.4227 229.887C66.9672 230.254 67.6567 230.438 68.4912 230.438ZM83.3949 232.284C82.2585 232.284 81.2553 231.997 80.3853 231.423C79.5153 230.843 78.8346 230.026 78.3434 228.973C77.8522 227.913 77.6065 226.661 77.6065 225.217C77.6065 223.785 77.8522 222.542 78.3434 221.489C78.8346 220.435 79.5182 219.621 80.3942 219.047C81.2701 218.473 82.2822 218.186 83.4304 218.186C84.3182 218.186 85.0195 218.334 85.5344 218.63C86.0553 218.92 86.4518 219.251 86.7241 219.624C87.0022 219.991 87.2183 220.293 87.3722 220.53H87.5497V213.818H89.6449V232H87.6207V229.905H87.3722C87.2183 230.153 86.9993 230.467 86.7152 230.846C86.4311 231.219 86.0257 231.553 85.4989 231.849C84.9722 232.139 84.2708 232.284 83.3949 232.284ZM83.679 230.402C84.5194 230.402 85.2296 230.183 85.8097 229.745C86.3897 229.301 86.8306 228.689 87.1325 227.907C87.4343 227.12 87.5852 226.212 87.5852 225.182C87.5852 224.164 87.4373 223.273 87.1413 222.51C86.8454 221.74 86.4074 221.142 85.8274 220.716C85.2474 220.284 84.5313 220.068 83.679 220.068C82.7912 220.068 82.0514 220.296 81.4595 220.752C80.8736 221.202 80.4326 221.814 80.1367 222.589C79.8467 223.359 79.7017 224.223 79.7017 225.182C79.7017 226.152 79.8497 227.034 80.1456 227.827C80.4474 228.615 80.8913 229.242 81.4773 229.71C82.0691 230.171 82.803 230.402 83.679 230.402ZM99.4904 232.284C98.1765 232.284 97.0431 231.994 96.0902 231.414C95.1432 230.828 94.4123 230.011 93.8974 228.964C93.3884 227.91 93.1339 226.685 93.1339 225.288C93.1339 223.892 93.3884 222.661 93.8974 221.595C94.4123 220.524 95.1284 219.689 96.0458 219.092C96.9691 218.488 98.0463 218.186 99.2773 218.186C99.9876 218.186 100.689 218.304 101.381 218.541C102.074 218.778 102.704 219.163 103.272 219.695C103.841 220.222 104.293 220.92 104.631 221.79C104.968 222.661 105.137 223.732 105.137 225.004V225.892H94.6254V224.081H103.006C103.006 223.312 102.852 222.625 102.544 222.021C102.243 221.418 101.81 220.941 101.248 220.592C100.692 220.243 100.035 220.068 99.2773 220.068C98.4428 220.068 97.7208 220.275 97.1112 220.69C96.5075 221.098 96.0429 221.631 95.7173 222.288C95.3918 222.945 95.229 223.649 95.229 224.401V225.608C95.229 226.638 95.4066 227.511 95.7617 228.227C96.1228 228.937 96.6229 229.479 97.2621 229.852C97.9013 230.219 98.6441 230.402 99.4904 230.402C100.041 230.402 100.538 230.325 100.982 230.171C101.432 230.011 101.819 229.775 102.145 229.461C102.47 229.141 102.722 228.745 102.9 228.271L104.924 228.839C104.711 229.526 104.353 230.13 103.849 230.651C103.346 231.165 102.725 231.568 101.985 231.858C101.245 232.142 100.414 232.284 99.4904 232.284ZM118.445 232L114.29 218.364H116.491L119.439 228.804H119.581L122.493 218.364H124.73L127.607 228.768H127.749L130.696 218.364H132.898L128.743 232H126.683L123.7 221.524H123.487L120.504 232H118.445ZM135.668 232V218.364H137.763V232H135.668ZM136.733 216.091C136.325 216.091 135.972 215.952 135.676 215.674C135.386 215.395 135.241 215.061 135.241 214.67C135.241 214.28 135.386 213.945 135.676 213.667C135.972 213.389 136.325 213.25 136.733 213.25C137.141 213.25 137.491 213.389 137.781 213.667C138.076 213.945 138.224 214.28 138.224 214.67C138.224 215.061 138.076 215.395 137.781 215.674C137.491 215.952 137.141 216.091 136.733 216.091ZM147.531 218.364V220.139H140.464V218.364H147.531ZM142.524 215.097H144.619V228.094C144.619 228.686 144.705 229.129 144.876 229.425C145.054 229.715 145.279 229.911 145.551 230.011C145.829 230.106 146.122 230.153 146.43 230.153C146.661 230.153 146.85 230.142 146.998 230.118C147.146 230.088 147.264 230.065 147.353 230.047L147.779 231.929C147.637 231.982 147.439 232.036 147.184 232.089C146.93 232.148 146.607 232.178 146.217 232.178C145.625 232.178 145.045 232.05 144.477 231.796C143.914 231.541 143.447 231.154 143.074 230.633C142.707 230.112 142.524 229.455 142.524 228.662V215.097ZM153.07 223.797V232H150.975V213.818H153.07V220.494H153.248C153.568 219.79 154.047 219.231 154.686 218.816C155.331 218.396 156.189 218.186 157.261 218.186C158.19 218.186 159.004 218.373 159.702 218.745C160.401 219.112 160.942 219.678 161.327 220.441C161.717 221.199 161.913 222.163 161.913 223.335V232H159.818V223.477C159.818 222.394 159.536 221.557 158.974 220.965C158.418 220.367 157.645 220.068 156.657 220.068C155.97 220.068 155.355 220.213 154.81 220.503C154.272 220.793 153.846 221.216 153.532 221.773C153.224 222.329 153.07 223.004 153.07 223.797ZM187.479 213.818V232H185.348L175.44 217.724H175.263V232H173.061V213.818H175.192L185.135 228.129H185.312V213.818H187.479ZM197.318 232.284C196.004 232.284 194.87 231.994 193.917 231.414C192.97 230.828 192.239 230.011 191.725 228.964C191.216 227.91 190.961 226.685 190.961 225.288C190.961 223.892 191.216 222.661 191.725 221.595C192.239 220.524 192.956 219.689 193.873 219.092C194.796 218.488 195.873 218.186 197.104 218.186C197.815 218.186 198.516 218.304 199.209 218.541C199.901 218.778 200.531 219.163 201.1 219.695C201.668 220.222 202.12 220.92 202.458 221.79C202.795 222.661 202.964 223.732 202.964 225.004V225.892H192.453V224.081H200.833C200.833 223.312 200.679 222.625 200.372 222.021C200.07 221.418 199.638 220.941 199.075 220.592C198.519 220.243 197.862 220.068 197.104 220.068C196.27 220.068 195.548 220.275 194.938 220.69C194.335 221.098 193.87 221.631 193.544 222.288C193.219 222.945 193.056 223.649 193.056 224.401V225.608C193.056 226.638 193.234 227.511 193.589 228.227C193.95 228.937 194.45 229.479 195.089 229.852C195.728 230.219 196.471 230.402 197.318 230.402C197.868 230.402 198.365 230.325 198.809 230.171C199.259 230.011 199.647 229.775 199.972 229.461C200.298 229.141 200.549 228.745 200.727 228.271L202.751 228.839C202.538 229.526 202.18 230.13 201.677 230.651C201.174 231.165 200.552 231.568 199.812 231.858C199.072 232.142 198.241 232.284 197.318 232.284ZM207.347 218.364L210.614 223.939L213.881 218.364H216.296L211.893 225.182L216.296 232H213.881L210.614 226.709L207.347 232H204.933L209.265 225.182L204.933 218.364H207.347ZM225.216 218.364V220.139H218.149V218.364H225.216ZM220.209 215.097H222.304V228.094C222.304 228.686 222.39 229.129 222.562 229.425C222.739 229.715 222.964 229.911 223.236 230.011C223.515 230.106 223.808 230.153 224.115 230.153C224.346 230.153 224.536 230.142 224.684 230.118C224.831 230.088 224.95 230.065 225.039 230.047L225.465 231.929C225.323 231.982 225.124 232.036 224.87 232.089C224.615 232.148 224.293 232.178 223.902 232.178C223.31 232.178 222.73 232.05 222.162 231.796C221.6 231.541 221.132 231.154 220.759 230.633C220.393 230.112 220.209 229.455 220.209 228.662V215.097ZM229.895 232.142C229.457 232.142 229.081 231.985 228.767 231.672C228.454 231.358 228.297 230.982 228.297 230.544C228.297 230.106 228.454 229.73 228.767 229.417C229.081 229.103 229.457 228.946 229.895 228.946C230.333 228.946 230.709 229.103 231.022 229.417C231.336 229.73 231.493 230.106 231.493 230.544C231.493 230.834 231.419 231.1 231.271 231.343C231.129 231.586 230.936 231.781 230.694 231.929C230.457 232.071 230.191 232.142 229.895 232.142ZM235.253 218.364H237.348V232.994C237.348 233.835 237.203 234.563 236.913 235.178C236.629 235.794 236.197 236.27 235.617 236.608C235.042 236.945 234.317 237.114 233.441 237.114C233.37 237.114 233.299 237.114 233.228 237.114C233.157 237.114 233.086 237.114 233.015 237.114V235.161C233.086 235.161 233.151 235.161 233.211 235.161C233.27 235.161 233.335 235.161 233.406 235.161C234.045 235.161 234.513 234.971 234.809 234.592C235.105 234.219 235.253 233.687 235.253 232.994V218.364ZM236.282 216.091C235.874 216.091 235.522 215.952 235.226 215.674C234.936 215.395 234.791 215.061 234.791 214.67C234.791 214.28 234.936 213.945 235.226 213.667C235.522 213.389 235.874 213.25 236.282 213.25C236.691 213.25 237.04 213.389 237.33 213.667C237.626 213.945 237.774 214.28 237.774 214.67C237.774 215.061 237.626 215.395 237.33 215.674C237.04 215.952 236.691 216.091 236.282 216.091ZM250.844 221.418L248.962 221.95C248.844 221.637 248.669 221.332 248.438 221.036C248.213 220.734 247.906 220.485 247.515 220.29C247.124 220.095 246.624 219.997 246.015 219.997C245.18 219.997 244.485 220.19 243.928 220.574C243.378 220.953 243.103 221.435 243.103 222.021C243.103 222.542 243.292 222.953 243.671 223.255C244.05 223.557 244.642 223.809 245.447 224.01L247.471 224.507C248.69 224.803 249.598 225.256 250.196 225.865C250.794 226.469 251.093 227.247 251.093 228.2C251.093 228.982 250.868 229.68 250.418 230.295C249.974 230.911 249.353 231.396 248.554 231.751C247.755 232.107 246.826 232.284 245.766 232.284C244.375 232.284 243.224 231.982 242.313 231.379C241.401 230.775 240.824 229.893 240.581 228.733L242.57 228.236C242.76 228.97 243.118 229.52 243.644 229.887C244.177 230.254 244.872 230.438 245.731 230.438C246.707 230.438 247.483 230.23 248.057 229.816C248.637 229.396 248.927 228.893 248.927 228.307C248.927 227.833 248.761 227.437 248.43 227.117C248.098 226.792 247.589 226.549 246.903 226.389L244.63 225.857C243.381 225.561 242.464 225.102 241.878 224.48C241.298 223.853 241.008 223.069 241.008 222.128C241.008 221.358 241.224 220.678 241.656 220.086C242.094 219.494 242.689 219.029 243.44 218.692C244.198 218.355 245.056 218.186 246.015 218.186C247.364 218.186 248.424 218.482 249.193 219.074C249.968 219.666 250.519 220.447 250.844 221.418ZM264.403 229.514L264.261 230.473C264.16 231.148 264.006 231.87 263.799 232.639C263.598 233.409 263.388 234.134 263.169 234.814C262.95 235.495 262.769 236.036 262.627 236.439H261.029C261.106 236.06 261.207 235.56 261.331 234.939C261.456 234.317 261.58 233.622 261.704 232.852C261.834 232.089 261.941 231.308 262.024 230.509L262.13 229.514H264.403ZM278.512 218.364C278.406 217.464 277.973 216.766 277.216 216.268C276.458 215.771 275.529 215.523 274.428 215.523C273.623 215.523 272.919 215.653 272.315 215.913C271.718 216.174 271.25 216.532 270.913 216.988C270.581 217.443 270.415 217.961 270.415 218.541C270.415 219.027 270.531 219.444 270.762 219.793C270.998 220.136 271.3 220.423 271.667 220.654C272.034 220.879 272.419 221.065 272.821 221.213C273.224 221.355 273.594 221.471 273.931 221.56L275.778 222.057C276.251 222.181 276.778 222.353 277.358 222.572C277.944 222.791 278.503 223.09 279.036 223.468C279.574 223.841 280.018 224.321 280.368 224.907C280.717 225.493 280.891 226.212 280.891 227.064C280.891 228.046 280.634 228.934 280.119 229.727C279.61 230.52 278.864 231.151 277.882 231.618C276.905 232.086 275.719 232.32 274.322 232.32C273.02 232.32 271.892 232.109 270.939 231.689C269.992 231.269 269.247 230.683 268.702 229.931C268.163 229.18 267.859 228.307 267.788 227.312H270.06C270.12 227.999 270.35 228.567 270.753 229.017C271.161 229.461 271.676 229.792 272.298 230.011C272.925 230.224 273.6 230.331 274.322 230.331C275.162 230.331 275.917 230.195 276.586 229.923C277.254 229.644 277.784 229.26 278.175 228.768C278.565 228.271 278.761 227.691 278.761 227.028C278.761 226.425 278.592 225.933 278.255 225.555C277.917 225.176 277.473 224.868 276.923 224.631C276.373 224.395 275.778 224.187 275.138 224.01L272.901 223.371C271.481 222.962 270.356 222.379 269.528 221.622C268.699 220.864 268.285 219.873 268.285 218.648C268.285 217.63 268.56 216.742 269.11 215.984C269.667 215.221 270.413 214.629 271.348 214.209C272.289 213.783 273.339 213.57 274.499 213.57C275.671 213.57 276.713 213.78 277.624 214.2C278.536 214.614 279.258 215.182 279.79 215.904C280.329 216.627 280.613 217.446 280.643 218.364H278.512ZM286.322 223.797V232H284.227V213.818H286.322V220.494H286.5C286.82 219.79 287.299 219.231 287.938 218.816C288.583 218.396 289.441 218.186 290.513 218.186C291.442 218.186 292.256 218.373 292.954 218.745C293.652 219.112 294.194 219.678 294.579 220.441C294.969 221.199 295.165 222.163 295.165 223.335V232H293.07V223.477C293.07 222.394 292.788 221.557 292.226 220.965C291.67 220.367 290.897 220.068 289.909 220.068C289.222 220.068 288.607 220.213 288.062 220.503C287.524 220.793 287.098 221.216 286.784 221.773C286.476 222.329 286.322 223.004 286.322 223.797ZM303.01 232.32C302.146 232.32 301.362 232.157 300.658 231.831C299.954 231.5 299.394 231.023 298.98 230.402C298.566 229.775 298.358 229.017 298.358 228.129C298.358 227.348 298.512 226.715 298.82 226.229C299.128 225.738 299.539 225.353 300.054 225.075C300.569 224.797 301.137 224.59 301.759 224.454C302.386 224.312 303.016 224.199 303.65 224.116C304.478 224.01 305.15 223.93 305.665 223.877C306.186 223.818 306.565 223.72 306.801 223.584C307.044 223.448 307.165 223.211 307.165 222.874V222.803C307.165 221.927 306.926 221.246 306.446 220.761C305.973 220.275 305.254 220.033 304.289 220.033C303.289 220.033 302.504 220.252 301.936 220.69C301.368 221.128 300.969 221.595 300.738 222.092L298.749 221.382C299.104 220.554 299.578 219.908 300.17 219.447C300.767 218.979 301.418 218.654 302.123 218.47C302.833 218.281 303.531 218.186 304.218 218.186C304.656 218.186 305.159 218.239 305.727 218.346C306.301 218.446 306.855 218.657 307.387 218.976C307.926 219.296 308.373 219.778 308.728 220.423C309.083 221.068 309.26 221.933 309.26 223.016V232H307.165V230.153H307.059C306.917 230.449 306.68 230.766 306.349 231.103C306.017 231.441 305.576 231.728 305.026 231.964C304.475 232.201 303.804 232.32 303.01 232.32ZM303.33 230.438C304.159 230.438 304.857 230.275 305.425 229.949C305.999 229.624 306.431 229.203 306.721 228.689C307.017 228.174 307.165 227.632 307.165 227.064V225.146C307.077 225.253 306.881 225.35 306.579 225.439C306.283 225.522 305.94 225.596 305.55 225.661C305.165 225.72 304.789 225.774 304.422 225.821C304.061 225.862 303.768 225.898 303.543 225.928C302.999 225.999 302.49 226.114 302.016 226.274C301.549 226.428 301.17 226.661 300.88 226.975C300.596 227.283 300.454 227.703 300.454 228.236C300.454 228.964 300.723 229.514 301.262 229.887C301.806 230.254 302.496 230.438 303.33 230.438ZM318.234 232.284C317.097 232.284 316.094 231.997 315.224 231.423C314.354 230.843 313.674 230.026 313.182 228.973C312.691 227.913 312.445 226.661 312.445 225.217C312.445 223.785 312.691 222.542 313.182 221.489C313.674 220.435 314.357 219.621 315.233 219.047C316.109 218.473 317.121 218.186 318.269 218.186C319.157 218.186 319.858 218.334 320.373 218.63C320.894 218.92 321.291 219.251 321.563 219.624C321.841 219.991 322.057 220.293 322.211 220.53H322.389V213.818H324.484V232H322.46V229.905H322.211C322.057 230.153 321.838 230.467 321.554 230.846C321.27 231.219 320.865 231.553 320.338 231.849C319.811 232.139 319.11 232.284 318.234 232.284ZM318.518 230.402C319.358 230.402 320.069 230.183 320.649 229.745C321.229 229.301 321.669 228.689 321.971 227.907C322.273 227.12 322.424 226.212 322.424 225.182C322.424 224.164 322.276 223.273 321.98 222.51C321.684 221.74 321.246 221.142 320.666 220.716C320.086 220.284 319.37 220.068 318.518 220.068C317.63 220.068 316.89 220.296 316.298 220.752C315.712 221.202 315.272 221.814 314.976 222.589C314.686 223.359 314.541 224.223 314.541 225.182C314.541 226.152 314.689 227.034 314.984 227.827C315.286 228.615 315.73 229.242 316.316 229.71C316.908 230.171 317.642 230.402 318.518 230.402ZM334.152 232.284C332.873 232.284 331.772 231.982 330.849 231.379C329.926 230.775 329.216 229.943 328.718 228.884C328.221 227.824 327.973 226.614 327.973 225.253C327.973 223.868 328.227 222.646 328.736 221.586C329.251 220.521 329.967 219.689 330.885 219.092C331.808 218.488 332.885 218.186 334.116 218.186C335.075 218.186 335.939 218.364 336.709 218.719C337.478 219.074 338.108 219.571 338.6 220.21C339.091 220.849 339.396 221.595 339.514 222.447H337.419C337.259 221.826 336.904 221.276 336.353 220.796C335.809 220.311 335.075 220.068 334.152 220.068C333.335 220.068 332.619 220.281 332.003 220.707C331.394 221.128 330.917 221.722 330.574 222.492C330.237 223.255 330.068 224.152 330.068 225.182C330.068 226.235 330.234 227.153 330.565 227.934C330.902 228.715 331.376 229.322 331.986 229.754C332.601 230.186 333.323 230.402 334.152 230.402C334.696 230.402 335.19 230.307 335.634 230.118C336.078 229.929 336.454 229.656 336.762 229.301C337.07 228.946 337.289 228.52 337.419 228.023H339.514C339.396 228.828 339.103 229.553 338.635 230.198C338.173 230.837 337.561 231.346 336.797 231.725C336.04 232.098 335.158 232.284 334.152 232.284ZM344.672 223.797V232H342.577V218.364H344.601V220.494H344.778C345.098 219.802 345.583 219.246 346.234 218.825C346.886 218.399 347.726 218.186 348.756 218.186C349.679 218.186 350.487 218.375 351.179 218.754C351.872 219.127 352.41 219.695 352.795 220.459C353.18 221.216 353.372 222.175 353.372 223.335V232H351.277V223.477C351.277 222.406 350.999 221.571 350.443 220.974C349.886 220.37 349.123 220.068 348.152 220.068C347.483 220.068 346.886 220.213 346.359 220.503C345.838 220.793 345.427 221.216 345.125 221.773C344.823 222.329 344.672 223.004 344.672 223.797ZM376.448 213.818H378.65V225.857C378.65 227.099 378.357 228.209 377.771 229.186C377.191 230.156 376.371 230.923 375.312 231.485C374.252 232.041 373.009 232.32 371.583 232.32C370.157 232.32 368.914 232.041 367.854 231.485C366.795 230.923 365.972 230.156 365.386 229.186C364.806 228.209 364.516 227.099 364.516 225.857V213.818H366.718V225.679C366.718 226.567 366.913 227.357 367.304 228.049C367.694 228.736 368.251 229.277 368.973 229.674C369.701 230.065 370.571 230.26 371.583 230.26C372.595 230.26 373.465 230.065 374.193 229.674C374.921 229.277 375.477 228.736 375.862 228.049C376.253 227.357 376.448 226.567 376.448 225.679V213.818ZM385.248 213.818V232H383.046V213.818H385.248ZM392.504 229.514L392.362 230.473C392.261 231.148 392.107 231.87 391.9 232.639C391.699 233.409 391.489 234.134 391.27 234.814C391.051 235.495 390.87 236.036 390.728 236.439H389.13C389.207 236.06 389.308 235.56 389.432 234.939C389.556 234.317 389.68 233.622 389.805 232.852C389.935 232.089 390.041 231.308 390.124 230.509L390.231 229.514H392.504ZM56.8324 253.5H54.6307C54.5005 252.867 54.2726 252.31 53.9471 251.831C53.6275 251.352 53.2369 250.949 52.7752 250.624C52.3195 250.292 51.8134 250.044 51.2571 249.878C50.7008 249.712 50.1207 249.629 49.517 249.629C48.4162 249.629 47.4189 249.907 46.5252 250.464C45.6374 251.02 44.9302 251.84 44.4034 252.923C43.8826 254.006 43.6222 255.335 43.6222 256.909C43.6222 258.483 43.8826 259.812 44.4034 260.895C44.9302 261.978 45.6374 262.798 46.5252 263.354C47.4189 263.911 48.4162 264.189 49.517 264.189C50.1207 264.189 50.7008 264.106 51.2571 263.94C51.8134 263.775 52.3195 263.529 52.7752 263.203C53.2369 262.872 53.6275 262.467 53.9471 261.987C54.2726 261.502 54.5005 260.946 54.6307 260.318H56.8324C56.6667 261.247 56.3648 262.079 55.9268 262.813C55.4889 263.547 54.9444 264.171 54.2933 264.686C53.6423 265.195 52.9113 265.583 52.1005 265.849C51.2956 266.115 50.4344 266.249 49.517 266.249C47.9664 266.249 46.5874 265.87 45.38 265.112C44.1726 264.355 43.2227 263.277 42.5302 261.881C41.8377 260.484 41.4915 258.827 41.4915 256.909C41.4915 254.991 41.8377 253.334 42.5302 251.938C43.2227 250.541 44.1726 249.464 45.38 248.706C46.5874 247.948 47.9664 247.57 49.517 247.57C50.4344 247.57 51.2956 247.703 52.1005 247.969C52.9113 248.235 53.6423 248.626 54.2933 249.141C54.9444 249.65 55.4889 250.271 55.9268 251.005C56.3648 251.733 56.6667 252.565 56.8324 253.5ZM65.6459 266.284C64.4148 266.284 63.3347 265.991 62.4055 265.405C61.4822 264.819 60.7601 264 60.2393 262.946C59.7243 261.893 59.4669 260.661 59.4669 259.253C59.4669 257.832 59.7243 256.592 60.2393 255.533C60.7601 254.474 61.4822 253.651 62.4055 253.065C63.3347 252.479 64.4148 252.186 65.6459 252.186C66.8769 252.186 67.9541 252.479 68.8774 253.065C69.8066 253.651 70.5287 254.474 71.0436 255.533C71.5644 256.592 71.8248 257.832 71.8248 259.253C71.8248 260.661 71.5644 261.893 71.0436 262.946C70.5287 264 69.8066 264.819 68.8774 265.405C67.9541 265.991 66.8769 266.284 65.6459 266.284ZM65.6459 264.402C66.581 264.402 67.3504 264.162 67.9541 263.683C68.5578 263.203 69.0046 262.573 69.2947 261.792C69.5847 261.011 69.7297 260.164 69.7297 259.253C69.7297 258.341 69.5847 257.492 69.2947 256.705C69.0046 255.918 68.5578 255.281 67.9541 254.796C67.3504 254.311 66.581 254.068 65.6459 254.068C64.7107 254.068 63.9413 254.311 63.3376 254.796C62.7339 255.281 62.2871 255.918 61.9971 256.705C61.7071 257.492 61.5621 258.341 61.5621 259.253C61.5621 260.164 61.7071 261.011 61.9971 261.792C62.2871 262.573 62.7339 263.203 63.3376 263.683C63.9413 264.162 64.7107 264.402 65.6459 264.402ZM77.1183 257.797V266H75.0231V252.364H77.0472V254.494H77.2248C77.5444 253.802 78.0297 253.246 78.6808 252.825C79.3318 252.399 80.1722 252.186 81.2021 252.186C82.1254 252.186 82.9332 252.375 83.6257 252.754C84.3182 253.127 84.8568 253.695 85.2415 254.459C85.6262 255.216 85.8185 256.175 85.8185 257.335V266H83.7234V257.477C83.7234 256.406 83.4452 255.571 82.8888 254.974C82.3325 254.37 81.569 254.068 80.5984 254.068C79.9296 254.068 79.3318 254.213 78.805 254.503C78.2842 254.793 77.8729 255.216 77.571 255.773C77.2692 256.329 77.1183 257.004 77.1183 257.797ZM100.309 252.364L95.2668 266H93.1361L88.0935 252.364H90.3662L94.1304 263.23H94.2725L98.0367 252.364H100.309ZM108.304 266.284C106.99 266.284 105.857 265.994 104.904 265.414C103.957 264.828 103.226 264.011 102.711 262.964C102.202 261.91 101.947 260.685 101.947 259.288C101.947 257.892 102.202 256.661 102.711 255.595C103.226 254.524 103.942 253.689 104.859 253.092C105.783 252.488 106.86 252.186 108.091 252.186C108.801 252.186 109.502 252.304 110.195 252.541C110.887 252.778 111.518 253.163 112.086 253.695C112.654 254.222 113.107 254.92 113.444 255.79C113.782 256.661 113.95 257.732 113.95 259.004V259.892H103.439V258.081H111.82C111.82 257.312 111.666 256.625 111.358 256.021C111.056 255.418 110.624 254.941 110.062 254.592C109.505 254.243 108.848 254.068 108.091 254.068C107.256 254.068 106.534 254.275 105.925 254.69C105.321 255.098 104.856 255.631 104.531 256.288C104.205 256.945 104.043 257.649 104.043 258.401V259.608C104.043 260.638 104.22 261.511 104.575 262.227C104.936 262.937 105.436 263.479 106.076 263.852C106.715 264.219 107.458 264.402 108.304 264.402C108.854 264.402 109.351 264.325 109.795 264.171C110.245 264.011 110.633 263.775 110.958 263.461C111.284 263.141 111.535 262.745 111.713 262.271L113.737 262.839C113.524 263.526 113.166 264.13 112.663 264.651C112.16 265.165 111.538 265.568 110.799 265.858C110.059 266.142 109.227 266.284 108.304 266.284ZM118.334 252.364L121.601 257.939L124.868 252.364H127.282L122.879 259.182L127.282 266H124.868L121.601 260.709L118.334 266H115.919L120.251 259.182L115.919 252.364H118.334ZM133.397 263.514L133.255 264.473C133.154 265.148 133.001 265.87 132.793 266.639C132.592 267.409 132.382 268.134 132.163 268.814C131.944 269.495 131.764 270.036 131.622 270.439H130.024C130.1 270.06 130.201 269.56 130.325 268.939C130.45 268.317 130.574 267.622 130.698 266.852C130.828 266.089 130.935 265.308 131.018 264.509L131.124 263.514H133.397ZM159.225 253.5H157.023C156.893 252.867 156.665 252.31 156.34 251.831C156.02 251.352 155.629 250.949 155.168 250.624C154.712 250.292 154.206 250.044 153.65 249.878C153.093 249.712 152.513 249.629 151.91 249.629C150.809 249.629 149.811 249.907 148.918 250.464C148.03 251.02 147.323 251.84 146.796 252.923C146.275 254.006 146.015 255.335 146.015 256.909C146.015 258.483 146.275 259.812 146.796 260.895C147.323 261.978 148.03 262.798 148.918 263.354C149.811 263.911 150.809 264.189 151.91 264.189C152.513 264.189 153.093 264.106 153.65 263.94C154.206 263.775 154.712 263.529 155.168 263.203C155.629 262.872 156.02 262.467 156.34 261.987C156.665 261.502 156.893 260.946 157.023 260.318H159.225C159.059 261.247 158.757 262.079 158.319 262.813C157.881 263.547 157.337 264.171 156.686 264.686C156.035 265.195 155.304 265.583 154.493 265.849C153.688 266.115 152.827 266.249 151.91 266.249C150.359 266.249 148.98 265.87 147.773 265.112C146.565 264.355 145.615 263.277 144.923 261.881C144.23 260.484 143.884 258.827 143.884 256.909C143.884 254.991 144.23 253.334 144.923 251.938C145.615 250.541 146.565 249.464 147.773 248.706C148.98 247.948 150.359 247.57 151.91 247.57C152.827 247.57 153.688 247.703 154.493 247.969C155.304 248.235 156.035 248.626 156.686 249.141C157.337 249.65 157.881 250.271 158.319 251.005C158.757 251.733 159.059 252.565 159.225 253.5ZM164.594 247.818V266H162.499V247.818H164.594ZM174.149 266.284C172.835 266.284 171.701 265.994 170.748 265.414C169.801 264.828 169.07 264.011 168.556 262.964C168.047 261.91 167.792 260.685 167.792 259.288C167.792 257.892 168.047 256.661 168.556 255.595C169.07 254.524 169.787 253.689 170.704 253.092C171.627 252.488 172.704 252.186 173.936 252.186C174.646 252.186 175.347 252.304 176.04 252.541C176.732 252.778 177.362 253.163 177.931 253.695C178.499 254.222 178.952 254.92 179.289 255.79C179.626 256.661 179.795 257.732 179.795 259.004V259.892H169.284V258.081H177.664C177.664 257.312 177.51 256.625 177.203 256.021C176.901 255.418 176.469 254.941 175.906 254.592C175.35 254.243 174.693 254.068 173.936 254.068C173.101 254.068 172.379 254.275 171.769 254.69C171.166 255.098 170.701 255.631 170.376 256.288C170.05 256.945 169.887 257.649 169.887 258.401V259.608C169.887 260.638 170.065 261.511 170.42 262.227C170.781 262.937 171.281 263.479 171.92 263.852C172.559 264.219 173.302 264.402 174.149 264.402C174.699 264.402 175.196 264.325 175.64 264.171C176.09 264.011 176.478 263.775 176.803 263.461C177.129 263.141 177.38 262.745 177.558 262.271L179.582 262.839C179.369 263.526 179.011 264.13 178.508 264.651C178.005 265.165 177.383 265.568 176.643 265.858C175.903 266.142 175.072 266.284 174.149 266.284ZM182.982 266V252.364H185.006V254.423H185.148C185.397 253.749 185.847 253.201 186.498 252.781C187.149 252.361 187.883 252.151 188.699 252.151C188.853 252.151 189.046 252.154 189.276 252.159C189.507 252.165 189.682 252.174 189.8 252.186V254.317C189.729 254.299 189.566 254.272 189.312 254.237C189.063 254.195 188.8 254.175 188.522 254.175C187.859 254.175 187.267 254.314 186.746 254.592C186.231 254.864 185.823 255.243 185.521 255.728C185.225 256.208 185.077 256.755 185.077 257.371V266H182.982ZM194.237 261.028L194.201 258.436H194.628L200.593 252.364H203.186L196.829 258.791H196.652L194.237 261.028ZM192.284 266V247.818H194.379V266H192.284ZM200.949 266L195.622 259.253L197.113 257.797L203.612 266H200.949ZM216.039 263.514L215.897 264.473C215.796 265.148 215.642 265.87 215.435 266.639C215.234 267.409 215.024 268.134 214.805 268.814C214.586 269.495 214.405 270.036 214.263 270.439H212.665C212.742 270.06 212.843 269.56 212.967 268.939C213.091 268.317 213.216 267.622 213.34 266.852C213.47 266.089 213.577 265.308 213.659 264.509L213.766 263.514H216.039ZM220.205 266V247.818H231.178V249.771H222.406V255.915H230.609V257.868H222.406V264.047H231.32V266H220.205ZM240.011 266.284C238.875 266.284 237.872 265.997 237.002 265.423C236.131 264.843 235.451 264.026 234.96 262.973C234.468 261.913 234.223 260.661 234.223 259.217C234.223 257.785 234.468 256.542 234.96 255.489C235.451 254.435 236.134 253.621 237.01 253.047C237.886 252.473 238.898 252.186 240.047 252.186C240.934 252.186 241.636 252.334 242.151 252.63C242.671 252.92 243.068 253.251 243.34 253.624C243.618 253.991 243.834 254.293 243.988 254.53H244.166V247.818H246.261V266H244.237V263.905H243.988C243.834 264.153 243.616 264.467 243.331 264.846C243.047 265.219 242.642 265.553 242.115 265.849C241.588 266.139 240.887 266.284 240.011 266.284ZM240.295 264.402C241.136 264.402 241.846 264.183 242.426 263.745C243.006 263.301 243.447 262.689 243.749 261.907C244.051 261.12 244.201 260.212 244.201 259.182C244.201 258.164 244.053 257.273 243.758 256.51C243.462 255.74 243.024 255.142 242.444 254.716C241.864 254.284 241.147 254.068 240.295 254.068C239.407 254.068 238.668 254.296 238.076 254.752C237.49 255.202 237.049 255.814 236.753 256.589C236.463 257.359 236.318 258.223 236.318 259.182C236.318 260.152 236.466 261.034 236.762 261.827C237.064 262.615 237.508 263.242 238.093 263.71C238.685 264.171 239.419 264.402 240.295 264.402ZM255.894 271.398C254.881 271.398 254.011 271.268 253.283 271.007C252.555 270.753 251.949 270.415 251.464 269.995C250.984 269.581 250.602 269.137 250.318 268.663L251.987 267.491C252.177 267.74 252.416 268.024 252.706 268.344C252.996 268.669 253.393 268.95 253.896 269.187C254.405 269.43 255.071 269.551 255.894 269.551C256.994 269.551 257.903 269.285 258.619 268.752C259.335 268.219 259.693 267.385 259.693 266.249V263.479H259.516C259.362 263.727 259.143 264.035 258.859 264.402C258.581 264.763 258.178 265.086 257.651 265.37C257.131 265.648 256.426 265.787 255.538 265.787C254.438 265.787 253.449 265.527 252.573 265.006C251.703 264.485 251.014 263.727 250.505 262.733C250.002 261.739 249.75 260.531 249.75 259.111C249.75 257.714 249.996 256.498 250.487 255.462C250.978 254.42 251.662 253.615 252.538 253.047C253.414 252.473 254.426 252.186 255.574 252.186C256.462 252.186 257.166 252.334 257.687 252.63C258.214 252.92 258.616 253.251 258.894 253.624C259.178 253.991 259.397 254.293 259.551 254.53H259.764V252.364H261.788V266.391C261.788 267.562 261.522 268.515 260.989 269.249C260.463 269.989 259.752 270.531 258.859 270.874C257.971 271.223 256.983 271.398 255.894 271.398ZM255.823 263.905C256.663 263.905 257.373 263.712 257.953 263.328C258.533 262.943 258.974 262.39 259.276 261.668C259.578 260.946 259.729 260.081 259.729 259.075C259.729 258.093 259.581 257.226 259.285 256.474C258.989 255.722 258.551 255.134 257.971 254.707C257.391 254.281 256.675 254.068 255.823 254.068C254.935 254.068 254.195 254.293 253.603 254.743C253.017 255.193 252.576 255.796 252.28 256.554C251.99 257.312 251.845 258.152 251.845 259.075C251.845 260.022 251.993 260.86 252.289 261.588C252.591 262.31 253.035 262.878 253.621 263.292C254.213 263.701 254.947 263.905 255.823 263.905ZM271.341 266.284C270.027 266.284 268.894 265.994 267.941 265.414C266.994 264.828 266.263 264.011 265.748 262.964C265.239 261.91 264.984 260.685 264.984 259.288C264.984 257.892 265.239 256.661 265.748 255.595C266.263 254.524 266.979 253.689 267.896 253.092C268.82 252.488 269.897 252.186 271.128 252.186C271.838 252.186 272.54 252.304 273.232 252.541C273.924 252.778 274.555 253.163 275.123 253.695C275.691 254.222 276.144 254.92 276.481 255.79C276.819 256.661 276.987 257.732 276.987 259.004V259.892H266.476V258.081H274.857C274.857 257.312 274.703 256.625 274.395 256.021C274.093 255.418 273.661 254.941 273.099 254.592C272.542 254.243 271.886 254.068 271.128 254.068C270.293 254.068 269.571 254.275 268.962 254.69C268.358 255.098 267.893 255.631 267.568 256.288C267.242 256.945 267.08 257.649 267.08 258.401V259.608C267.08 260.638 267.257 261.511 267.612 262.227C267.973 262.937 268.473 263.479 269.113 263.852C269.752 264.219 270.495 264.402 271.341 264.402C271.891 264.402 272.389 264.325 272.832 264.171C273.282 264.011 273.67 263.775 273.995 263.461C274.321 263.141 274.573 262.745 274.75 262.271L276.774 262.839C276.561 263.526 276.203 264.13 275.7 264.651C275.197 265.165 274.575 265.568 273.836 265.858C273.096 266.142 272.264 266.284 271.341 266.284ZM297.433 252.364C297.326 251.464 296.894 250.766 296.137 250.268C295.379 249.771 294.45 249.523 293.349 249.523C292.544 249.523 291.84 249.653 291.236 249.913C290.638 250.174 290.171 250.532 289.834 250.988C289.502 251.443 289.336 251.961 289.336 252.541C289.336 253.027 289.452 253.444 289.683 253.793C289.919 254.136 290.221 254.423 290.588 254.654C290.955 254.879 291.34 255.065 291.742 255.213C292.145 255.355 292.515 255.471 292.852 255.56L294.699 256.057C295.172 256.181 295.699 256.353 296.279 256.572C296.865 256.791 297.424 257.09 297.957 257.468C298.495 257.841 298.939 258.321 299.288 258.907C299.638 259.493 299.812 260.212 299.812 261.064C299.812 262.046 299.555 262.934 299.04 263.727C298.531 264.52 297.785 265.151 296.803 265.618C295.826 266.086 294.639 266.32 293.243 266.32C291.941 266.32 290.813 266.109 289.86 265.689C288.913 265.269 288.167 264.683 287.623 263.931C287.084 263.18 286.78 262.307 286.709 261.312H288.981C289.04 261.999 289.271 262.567 289.674 263.017C290.082 263.461 290.597 263.792 291.218 264.011C291.846 264.224 292.521 264.331 293.243 264.331C294.083 264.331 294.838 264.195 295.506 263.923C296.175 263.644 296.705 263.26 297.096 262.768C297.486 262.271 297.682 261.691 297.682 261.028C297.682 260.425 297.513 259.933 297.176 259.555C296.838 259.176 296.394 258.868 295.844 258.631C295.293 258.395 294.699 258.187 294.059 258.01L291.822 257.371C290.402 256.962 289.277 256.379 288.449 255.622C287.62 254.864 287.206 253.873 287.206 252.648C287.206 251.63 287.481 250.742 288.031 249.984C288.588 249.221 289.333 248.629 290.269 248.209C291.21 247.783 292.26 247.57 293.42 247.57C294.592 247.57 295.634 247.78 296.545 248.2C297.457 248.614 298.179 249.182 298.711 249.904C299.25 250.627 299.534 251.446 299.564 252.364H297.433ZM309.078 252.364V254.139H302.012V252.364H309.078ZM304.071 249.097H306.167V262.094C306.167 262.686 306.252 263.129 306.424 263.425C306.602 263.715 306.826 263.911 307.099 264.011C307.377 264.106 307.67 264.153 307.978 264.153C308.208 264.153 308.398 264.142 308.546 264.118C308.694 264.088 308.812 264.065 308.901 264.047L309.327 265.929C309.185 265.982 308.987 266.036 308.732 266.089C308.478 266.148 308.155 266.178 307.765 266.178C307.173 266.178 306.593 266.05 306.025 265.796C305.462 265.541 304.995 265.154 304.622 264.633C304.255 264.112 304.071 263.455 304.071 262.662V249.097ZM317.623 266.284C316.392 266.284 315.312 265.991 314.383 265.405C313.46 264.819 312.738 264 312.217 262.946C311.702 261.893 311.444 260.661 311.444 259.253C311.444 257.832 311.702 256.592 312.217 255.533C312.738 254.474 313.46 253.651 314.383 253.065C315.312 252.479 316.392 252.186 317.623 252.186C318.854 252.186 319.932 252.479 320.855 253.065C321.784 253.651 322.506 254.474 323.021 255.533C323.542 256.592 323.802 257.832 323.802 259.253C323.802 260.661 323.542 261.893 323.021 262.946C322.506 264 321.784 264.819 320.855 265.405C319.932 265.991 318.854 266.284 317.623 266.284ZM317.623 264.402C318.559 264.402 319.328 264.162 319.932 263.683C320.535 263.203 320.982 262.573 321.272 261.792C321.562 261.011 321.707 260.164 321.707 259.253C321.707 258.341 321.562 257.492 321.272 256.705C320.982 255.918 320.535 255.281 319.932 254.796C319.328 254.311 318.559 254.068 317.623 254.068C316.688 254.068 315.919 254.311 315.315 254.796C314.711 255.281 314.265 255.918 313.975 256.705C313.685 257.492 313.54 258.341 313.54 259.253C313.54 260.164 313.685 261.011 313.975 261.792C314.265 262.573 314.711 263.203 315.315 263.683C315.919 264.162 316.688 264.402 317.623 264.402ZM327.001 266V252.364H329.025V254.423H329.167C329.415 253.749 329.865 253.201 330.516 252.781C331.167 252.361 331.901 252.151 332.718 252.151C332.872 252.151 333.064 252.154 333.295 252.159C333.526 252.165 333.7 252.174 333.819 252.186V254.317C333.748 254.299 333.585 254.272 333.331 254.237C333.082 254.195 332.819 254.175 332.54 254.175C331.878 254.175 331.286 254.314 330.765 254.592C330.25 254.864 329.842 255.243 329.54 255.728C329.244 256.208 329.096 256.755 329.096 257.371V266H327.001ZM341.605 266.284C340.291 266.284 339.157 265.994 338.204 265.414C337.257 264.828 336.527 264.011 336.012 262.964C335.503 261.91 335.248 260.685 335.248 259.288C335.248 257.892 335.503 256.661 336.012 255.595C336.527 254.524 337.243 253.689 338.16 253.092C339.083 252.488 340.161 252.186 341.392 252.186C342.102 252.186 342.803 252.304 343.496 252.541C344.188 252.778 344.818 253.163 345.387 253.695C345.955 254.222 346.408 254.92 346.745 255.79C347.082 256.661 347.251 257.732 347.251 259.004V259.892H336.74V258.081H345.12C345.12 257.312 344.966 256.625 344.659 256.021C344.357 255.418 343.925 254.941 343.362 254.592C342.806 254.243 342.149 254.068 341.392 254.068C340.557 254.068 339.835 254.275 339.225 254.69C338.622 255.098 338.157 255.631 337.832 256.288C337.506 256.945 337.343 257.649 337.343 258.401V259.608C337.343 260.638 337.521 261.511 337.876 262.227C338.237 262.937 338.737 263.479 339.376 263.852C340.016 264.219 340.758 264.402 341.605 264.402C342.155 264.402 342.652 264.325 343.096 264.171C343.546 264.011 343.934 263.775 344.259 263.461C344.585 263.141 344.836 262.745 345.014 262.271L347.038 262.839C346.825 263.526 346.467 264.13 345.964 264.651C345.461 265.165 344.839 265.568 344.099 265.858C343.36 266.142 342.528 266.284 341.605 266.284ZM42.2017 315.818H44.8295L51.0085 330.911H51.2216L57.4006 315.818H60.0284V334H57.9688V320.186H57.7912L52.1094 334H50.1207L44.4389 320.186H44.2614V334H42.2017V315.818ZM68.1716 334.32C67.3075 334.32 66.5233 334.157 65.819 333.831C65.1147 333.5 64.5554 333.023 64.1411 332.402C63.7268 331.775 63.5196 331.017 63.5196 330.129C63.5196 329.348 63.6735 328.715 63.9813 328.229C64.289 327.738 64.7004 327.353 65.2153 327.075C65.7302 326.797 66.2984 326.59 66.9198 326.454C67.5472 326.312 68.1775 326.199 68.8108 326.116C69.6394 326.01 70.3112 325.93 70.8261 325.877C71.3469 325.818 71.7257 325.72 71.9624 325.584C72.2051 325.448 72.3264 325.211 72.3264 324.874V324.803C72.3264 323.927 72.0867 323.246 71.6073 322.761C71.1338 322.275 70.4147 322.033 69.45 322.033C68.4498 322.033 67.6656 322.252 67.0974 322.69C66.5292 323.128 66.1297 323.595 65.8989 324.092L63.9102 323.382C64.2654 322.554 64.7388 321.908 65.3307 321.447C65.9285 320.979 66.5795 320.654 67.2838 320.47C67.9941 320.281 68.6924 320.186 69.379 320.186C69.817 320.186 70.32 320.239 70.8882 320.346C71.4623 320.446 72.0157 320.657 72.5484 320.976C73.087 321.296 73.5338 321.778 73.8889 322.423C74.2441 323.068 74.4216 323.933 74.4216 325.016V334H72.3264V332.153H72.2199C72.0779 332.449 71.8411 332.766 71.5097 333.103C71.1782 333.441 70.7373 333.728 70.1869 333.964C69.6365 334.201 68.9647 334.32 68.1716 334.32ZM68.4912 332.438C69.3198 332.438 70.0182 332.275 70.5864 331.949C71.1605 331.624 71.5925 331.203 71.8825 330.689C72.1785 330.174 72.3264 329.632 72.3264 329.064V327.146C72.2377 327.253 72.0423 327.35 71.7405 327.439C71.4446 327.522 71.1013 327.596 70.7107 327.661C70.326 327.72 69.9501 327.774 69.5832 327.821C69.2222 327.862 68.9292 327.898 68.7043 327.928C68.1598 327.999 67.6508 328.114 67.1773 328.274C66.7097 328.428 66.3309 328.661 66.0409 328.975C65.7568 329.283 65.6148 329.703 65.6148 330.236C65.6148 330.964 65.8841 331.514 66.4227 331.887C66.9672 332.254 67.6567 332.438 68.4912 332.438ZM80.1989 329.028L80.1634 326.436H80.5895L86.5554 320.364H89.1477L82.7912 326.791H82.6136L80.1989 329.028ZM78.2457 334V315.818H80.3409V334H78.2457ZM86.9105 334L81.5838 327.253L83.0753 325.797L89.5739 334H86.9105ZM97.0002 334.284C95.6863 334.284 94.5529 333.994 93.6 333.414C92.653 332.828 91.9221 332.011 91.4071 330.964C90.8981 329.91 90.6436 328.685 90.6436 327.288C90.6436 325.892 90.8981 324.661 91.4071 323.595C91.9221 322.524 92.6382 321.689 93.5556 321.092C94.4789 320.488 95.556 320.186 96.7871 320.186C97.4973 320.186 98.1987 320.304 98.8912 320.541C99.5836 320.778 100.214 321.163 100.782 321.695C101.35 322.222 101.803 322.92 102.14 323.79C102.478 324.661 102.646 325.732 102.646 327.004V327.892H92.1351V326.081H100.516C100.516 325.312 100.362 324.625 100.054 324.021C99.7523 323.418 99.3203 322.941 98.758 322.592C98.2016 322.243 97.5447 322.068 96.7871 322.068C95.9526 322.068 95.2305 322.275 94.6209 322.69C94.0172 323.098 93.5526 323.631 93.2271 324.288C92.9016 324.945 92.7388 325.649 92.7388 326.401V327.608C92.7388 328.638 92.9164 329.511 93.2715 330.227C93.6325 330.937 94.1326 331.479 94.7718 331.852C95.411 332.219 96.1538 332.402 97.0002 332.402C97.5506 332.402 98.0478 332.325 98.4917 332.171C98.9415 332.011 99.3291 331.775 99.6547 331.461C99.9802 331.141 100.232 330.745 100.409 330.271L102.433 330.839C102.22 331.526 101.862 332.13 101.359 332.651C100.856 333.165 100.235 333.568 99.4949 333.858C98.755 334.142 97.9235 334.284 97.0002 334.284ZM114.96 325.797V334H112.865V320.364H114.889V322.494H115.067C115.386 321.802 115.872 321.246 116.523 320.825C117.174 320.399 118.014 320.186 119.044 320.186C119.967 320.186 120.775 320.375 121.468 320.754C122.16 321.127 122.699 321.695 123.083 322.459C123.468 323.216 123.66 324.175 123.66 325.335V334H121.565V325.477C121.565 324.406 121.287 323.571 120.731 322.974C120.174 322.37 119.411 322.068 118.44 322.068C117.771 322.068 117.174 322.213 116.647 322.503C116.126 322.793 115.715 323.216 115.413 323.773C115.111 324.329 114.96 325.004 114.96 325.797ZM133.029 334.284C131.798 334.284 130.717 333.991 129.788 333.405C128.865 332.819 128.143 332 127.622 330.946C127.107 329.893 126.85 328.661 126.85 327.253C126.85 325.832 127.107 324.592 127.622 323.533C128.143 322.474 128.865 321.651 129.788 321.065C130.717 320.479 131.798 320.186 133.029 320.186C134.26 320.186 135.337 320.479 136.26 321.065C137.189 321.651 137.911 322.474 138.426 323.533C138.947 324.592 139.208 325.832 139.208 327.253C139.208 328.661 138.947 329.893 138.426 330.946C137.911 332 137.189 332.819 136.26 333.405C135.337 333.991 134.26 334.284 133.029 334.284ZM133.029 332.402C133.964 332.402 134.733 332.162 135.337 331.683C135.941 331.203 136.387 330.573 136.677 329.792C136.967 329.011 137.112 328.164 137.112 327.253C137.112 326.341 136.967 325.492 136.677 324.705C136.387 323.918 135.941 323.281 135.337 322.796C134.733 322.311 133.964 322.068 133.029 322.068C132.094 322.068 131.324 322.311 130.72 322.796C130.117 323.281 129.67 323.918 129.38 324.705C129.09 325.492 128.945 326.341 128.945 327.253C128.945 328.164 129.09 329.011 129.38 329.792C129.67 330.573 130.117 331.203 130.72 331.683C131.324 332.162 132.094 332.402 133.029 332.402ZM148.336 320.364V322.139H141.27V320.364H148.336ZM143.329 317.097H145.424V330.094C145.424 330.686 145.51 331.129 145.682 331.425C145.859 331.715 146.084 331.911 146.357 332.011C146.635 332.106 146.928 332.153 147.235 332.153C147.466 332.153 147.656 332.142 147.804 332.118C147.952 332.088 148.07 332.065 148.159 332.047L148.585 333.929C148.443 333.982 148.245 334.036 147.99 334.089C147.736 334.148 147.413 334.178 147.022 334.178C146.431 334.178 145.85 334.05 145.282 333.796C144.72 333.541 144.252 333.154 143.88 332.633C143.513 332.112 143.329 331.455 143.329 330.662V317.097ZM157.059 334.284C155.745 334.284 154.611 333.994 153.659 333.414C152.712 332.828 151.981 332.011 151.466 330.964C150.957 329.91 150.702 328.685 150.702 327.288C150.702 325.892 150.957 324.661 151.466 323.595C151.981 322.524 152.697 321.689 153.614 321.092C154.537 320.488 155.615 320.186 156.846 320.186C157.556 320.186 158.257 320.304 158.95 320.541C159.642 320.778 160.273 321.163 160.841 321.695C161.409 322.222 161.862 322.92 162.199 323.79C162.536 324.661 162.705 325.732 162.705 327.004V327.892H152.194V326.081H160.574C160.574 325.312 160.421 324.625 160.113 324.021C159.811 323.418 159.379 322.941 158.817 322.592C158.26 322.243 157.603 322.068 156.846 322.068C156.011 322.068 155.289 322.275 154.68 322.69C154.076 323.098 153.611 323.631 153.286 324.288C152.96 324.945 152.797 325.649 152.797 326.401V327.608C152.797 328.638 152.975 329.511 153.33 330.227C153.691 330.937 154.191 331.479 154.83 331.852C155.47 332.219 156.212 332.402 157.059 332.402C157.609 332.402 158.106 332.325 158.55 332.171C159 332.011 159.388 331.775 159.713 331.461C160.039 331.141 160.29 330.745 160.468 330.271L162.492 330.839C162.279 331.526 161.921 332.13 161.418 332.651C160.915 333.165 160.293 333.568 159.553 333.858C158.814 334.142 157.982 334.284 157.059 334.284ZM175.551 323.418L173.669 323.95C173.551 323.637 173.376 323.332 173.145 323.036C172.921 322.734 172.613 322.485 172.222 322.29C171.831 322.095 171.331 321.997 170.722 321.997C169.887 321.997 169.192 322.19 168.635 322.574C168.085 322.953 167.81 323.435 167.81 324.021C167.81 324.542 167.999 324.953 168.378 325.255C168.757 325.557 169.349 325.809 170.154 326.01L172.178 326.507C173.397 326.803 174.305 327.256 174.903 327.865C175.501 328.469 175.8 329.247 175.8 330.2C175.8 330.982 175.575 331.68 175.125 332.295C174.681 332.911 174.06 333.396 173.261 333.751C172.462 334.107 171.533 334.284 170.473 334.284C169.082 334.284 167.931 333.982 167.02 333.379C166.108 332.775 165.531 331.893 165.289 330.733L167.277 330.236C167.467 330.97 167.825 331.52 168.351 331.887C168.884 332.254 169.579 332.438 170.438 332.438C171.414 332.438 172.19 332.23 172.764 331.816C173.344 331.396 173.634 330.893 173.634 330.307C173.634 329.833 173.468 329.437 173.137 329.117C172.805 328.792 172.296 328.549 171.61 328.389L169.337 327.857C168.088 327.561 167.171 327.102 166.585 326.48C166.005 325.853 165.715 325.069 165.715 324.128C165.715 323.358 165.931 322.678 166.363 322.086C166.801 321.494 167.396 321.029 168.147 320.692C168.905 320.355 169.763 320.186 170.722 320.186C172.071 320.186 173.131 320.482 173.9 321.074C174.675 321.666 175.226 322.447 175.551 323.418ZM182.079 331.514L181.937 332.473C181.836 333.148 181.682 333.87 181.475 334.639C181.274 335.409 181.064 336.134 180.845 336.814C180.626 337.495 180.445 338.036 180.303 338.439H178.705C178.782 338.06 178.883 337.56 179.007 336.939C179.131 336.317 179.256 335.622 179.38 334.852C179.51 334.089 179.617 333.308 179.699 332.509L179.806 331.514H182.079ZM197.005 334.32C196.141 334.32 195.356 334.157 194.652 333.831C193.948 333.5 193.388 333.023 192.974 332.402C192.56 331.775 192.353 331.017 192.353 330.129C192.353 329.348 192.507 328.715 192.814 328.229C193.122 327.738 193.533 327.353 194.048 327.075C194.563 326.797 195.131 326.59 195.753 326.454C196.38 326.312 197.011 326.199 197.644 326.116C198.472 326.01 199.144 325.93 199.659 325.877C200.18 325.818 200.559 325.72 200.795 325.584C201.038 325.448 201.159 325.211 201.159 324.874V324.803C201.159 323.927 200.92 323.246 200.44 322.761C199.967 322.275 199.248 322.033 198.283 322.033C197.283 322.033 196.499 322.252 195.93 322.69C195.362 323.128 194.963 323.595 194.732 324.092L192.743 323.382C193.098 322.554 193.572 321.908 194.164 321.447C194.761 320.979 195.413 320.654 196.117 320.47C196.827 320.281 197.525 320.186 198.212 320.186C198.65 320.186 199.153 320.239 199.721 320.346C200.295 320.446 200.849 320.657 201.381 320.976C201.92 321.296 202.367 321.778 202.722 322.423C203.077 323.068 203.255 323.933 203.255 325.016V334H201.159V332.153H201.053C200.911 332.449 200.674 332.766 200.343 333.103C200.011 333.441 199.57 333.728 199.02 333.964C198.469 334.201 197.798 334.32 197.005 334.32ZM197.324 332.438C198.153 332.438 198.851 332.275 199.419 331.949C199.993 331.624 200.426 331.203 200.716 330.689C201.011 330.174 201.159 329.632 201.159 329.064V327.146C201.071 327.253 200.875 327.35 200.574 327.439C200.278 327.522 199.934 327.596 199.544 327.661C199.159 327.72 198.783 327.774 198.416 327.821C198.055 327.862 197.762 327.898 197.537 327.928C196.993 327.999 196.484 328.114 196.01 328.274C195.543 328.428 195.164 328.661 194.874 328.975C194.59 329.283 194.448 329.703 194.448 330.236C194.448 330.964 194.717 331.514 195.256 331.887C195.8 332.254 196.49 332.438 197.324 332.438ZM212.228 334.284C211.092 334.284 210.088 333.997 209.218 333.423C208.348 332.843 207.668 332.026 207.176 330.973C206.685 329.913 206.44 328.661 206.44 327.217C206.44 325.785 206.685 324.542 207.176 323.489C207.668 322.435 208.351 321.621 209.227 321.047C210.103 320.473 211.115 320.186 212.263 320.186C213.151 320.186 213.853 320.334 214.367 320.63C214.888 320.92 215.285 321.251 215.557 321.624C215.835 321.991 216.051 322.293 216.205 322.53H216.383V315.818H218.478V334H216.454V331.905H216.205C216.051 332.153 215.832 332.467 215.548 332.846C215.264 333.219 214.859 333.553 214.332 333.849C213.805 334.139 213.104 334.284 212.228 334.284ZM212.512 332.402C213.352 332.402 214.063 332.183 214.643 331.745C215.223 331.301 215.664 330.689 215.965 329.907C216.267 329.12 216.418 328.212 216.418 327.182C216.418 326.164 216.27 325.273 215.974 324.51C215.678 323.74 215.24 323.142 214.66 322.716C214.08 322.284 213.364 322.068 212.512 322.068C211.624 322.068 210.884 322.296 210.293 322.752C209.707 323.202 209.266 323.814 208.97 324.589C208.68 325.359 208.535 326.223 208.535 327.182C208.535 328.152 208.683 329.034 208.979 329.827C209.28 330.615 209.724 331.242 210.31 331.71C210.902 332.171 211.636 332.402 212.512 332.402ZM227.755 334.284C226.619 334.284 225.616 333.997 224.746 333.423C223.876 332.843 223.195 332.026 222.704 330.973C222.213 329.913 221.967 328.661 221.967 327.217C221.967 325.785 222.213 324.542 222.704 323.489C223.195 322.435 223.879 321.621 224.755 321.047C225.63 320.473 226.643 320.186 227.791 320.186C228.679 320.186 229.38 320.334 229.895 320.63C230.416 320.92 230.812 321.251 231.084 321.624C231.363 321.991 231.579 322.293 231.733 322.53H231.91V315.818H234.005V334H231.981V331.905H231.733C231.579 332.153 231.36 332.467 231.076 332.846C230.791 333.219 230.386 333.553 229.859 333.849C229.333 334.139 228.631 334.284 227.755 334.284ZM228.039 332.402C228.88 332.402 229.59 332.183 230.17 331.745C230.75 331.301 231.191 330.689 231.493 329.907C231.795 329.12 231.946 328.212 231.946 327.182C231.946 326.164 231.798 325.273 231.502 324.51C231.206 323.74 230.768 323.142 230.188 322.716C229.608 322.284 228.892 322.068 228.039 322.068C227.152 322.068 226.412 322.296 225.82 322.752C225.234 323.202 224.793 323.814 224.497 324.589C224.207 325.359 224.062 326.223 224.062 327.182C224.062 328.152 224.21 329.034 224.506 329.827C224.808 330.615 225.252 331.242 225.838 331.71C226.429 332.171 227.163 332.402 228.039 332.402ZM251.237 320.364V322.139H243.886V320.364H251.237ZM246.088 334V318.482C246.088 317.7 246.271 317.049 246.638 316.528C247.005 316.008 247.482 315.617 248.068 315.357C248.654 315.096 249.272 314.966 249.923 314.966C250.438 314.966 250.858 315.007 251.184 315.09C251.509 315.173 251.752 315.25 251.912 315.321L251.308 317.132C251.202 317.097 251.054 317.052 250.864 316.999C250.681 316.946 250.438 316.919 250.136 316.919C249.444 316.919 248.944 317.094 248.636 317.443C248.334 317.792 248.183 318.304 248.183 318.979V334H246.088ZM254.173 334V320.364H256.269V334H254.173ZM255.239 318.091C254.83 318.091 254.478 317.952 254.182 317.674C253.892 317.395 253.747 317.061 253.747 316.67C253.747 316.28 253.892 315.945 254.182 315.667C254.478 315.389 254.83 315.25 255.239 315.25C255.647 315.25 255.996 315.389 256.286 315.667C256.582 315.945 256.73 316.28 256.73 316.67C256.73 317.061 256.582 317.395 256.286 317.674C255.996 317.952 255.647 318.091 255.239 318.091ZM262.201 315.818V334H260.106V315.818H262.201ZM271.756 334.284C270.442 334.284 269.309 333.994 268.356 333.414C267.409 332.828 266.678 332.011 266.163 330.964C265.654 329.91 265.4 328.685 265.4 327.288C265.4 325.892 265.654 324.661 266.163 323.595C266.678 322.524 267.394 321.689 268.311 321.092C269.235 320.488 270.312 320.186 271.543 320.186C272.253 320.186 272.955 320.304 273.647 320.541C274.339 320.778 274.97 321.163 275.538 321.695C276.106 322.222 276.559 322.92 276.896 323.79C277.234 324.661 277.402 325.732 277.402 327.004V327.892H266.891V326.081H275.272C275.272 325.312 275.118 324.625 274.81 324.021C274.508 323.418 274.076 322.941 273.514 322.592C272.958 322.243 272.301 322.068 271.543 322.068C270.708 322.068 269.986 322.275 269.377 322.69C268.773 323.098 268.308 323.631 267.983 324.288C267.657 324.945 267.495 325.649 267.495 326.401V327.608C267.495 328.638 267.672 329.511 268.027 330.227C268.388 330.937 268.888 331.479 269.528 331.852C270.167 332.219 270.91 332.402 271.756 332.402C272.306 332.402 272.804 332.325 273.248 332.171C273.697 332.011 274.085 331.775 274.411 331.461C274.736 331.141 274.988 330.745 275.165 330.271L277.189 330.839C276.976 331.526 276.618 332.13 276.115 332.651C275.612 333.165 274.991 333.568 274.251 333.858C273.511 334.142 272.679 334.284 271.756 334.284ZM290.249 323.418L288.366 323.95C288.248 323.637 288.074 323.332 287.843 323.036C287.618 322.734 287.31 322.485 286.919 322.29C286.529 322.095 286.029 321.997 285.419 321.997C284.585 321.997 283.889 322.19 283.333 322.574C282.782 322.953 282.507 323.435 282.507 324.021C282.507 324.542 282.696 324.953 283.075 325.255C283.454 325.557 284.046 325.809 284.851 326.01L286.875 326.507C288.094 326.803 289.003 327.256 289.6 327.865C290.198 328.469 290.497 329.247 290.497 330.2C290.497 330.982 290.272 331.68 289.822 332.295C289.379 332.911 288.757 333.396 287.958 333.751C287.159 334.107 286.23 334.284 285.17 334.284C283.78 334.284 282.628 333.982 281.717 333.379C280.806 332.775 280.228 331.893 279.986 330.733L281.974 330.236C282.164 330.97 282.522 331.52 283.049 331.887C283.581 332.254 284.277 332.438 285.135 332.438C286.112 332.438 286.887 332.23 287.461 331.816C288.041 331.396 288.331 330.893 288.331 330.307C288.331 329.833 288.165 329.437 287.834 329.117C287.502 328.792 286.993 328.549 286.307 328.389L284.034 327.857C282.785 327.561 281.868 327.102 281.282 326.48C280.702 325.853 280.412 325.069 280.412 324.128C280.412 323.358 280.628 322.678 281.06 322.086C281.498 321.494 282.093 321.029 282.844 320.692C283.602 320.355 284.46 320.186 285.419 320.186C286.768 320.186 287.828 320.482 288.597 321.074C289.373 321.666 289.923 322.447 290.249 323.418ZM296.776 331.514L296.634 332.473C296.533 333.148 296.379 333.87 296.172 334.639C295.971 335.409 295.761 336.134 295.542 336.814C295.323 337.495 295.142 338.036 295 338.439H293.402C293.479 338.06 293.58 337.56 293.704 336.939C293.829 336.317 293.953 335.622 294.077 334.852C294.207 334.089 294.314 333.308 294.397 332.509L294.503 331.514H296.776ZM307.689 334V320.364H309.784V334H307.689ZM308.754 318.091C308.346 318.091 307.994 317.952 307.698 317.674C307.408 317.395 307.263 317.061 307.263 316.67C307.263 316.28 307.408 315.945 307.698 315.667C307.994 315.389 308.346 315.25 308.754 315.25C309.163 315.25 309.512 315.389 309.802 315.667C310.098 315.945 310.246 316.28 310.246 316.67C310.246 317.061 310.098 317.395 309.802 317.674C309.512 317.952 309.163 318.091 308.754 318.091ZM313.622 334V320.364H315.646V322.494H315.823C316.108 321.766 316.566 321.201 317.199 320.799C317.833 320.39 318.593 320.186 319.481 320.186C320.381 320.186 321.129 320.39 321.727 320.799C322.331 321.201 322.801 321.766 323.139 322.494H323.281C323.63 321.79 324.154 321.231 324.852 320.816C325.551 320.396 326.388 320.186 327.365 320.186C328.584 320.186 329.581 320.568 330.356 321.331C331.132 322.089 331.519 323.27 331.519 324.874V334H329.424V324.874C329.424 323.867 329.149 323.148 328.599 322.716C328.048 322.284 327.4 322.068 326.654 322.068C325.696 322.068 324.953 322.358 324.426 322.938C323.899 323.512 323.636 324.24 323.636 325.122V334H321.505V324.661C321.505 323.885 321.254 323.261 320.751 322.787C320.248 322.308 319.599 322.068 318.806 322.068C318.262 322.068 317.753 322.213 317.279 322.503C316.812 322.793 316.433 323.196 316.143 323.711C315.859 324.22 315.717 324.808 315.717 325.477V334H313.622ZM339.363 334.32C338.499 334.32 337.715 334.157 337.01 333.831C336.306 333.5 335.747 333.023 335.332 332.402C334.918 331.775 334.711 331.017 334.711 330.129C334.711 329.348 334.865 328.715 335.173 328.229C335.48 327.738 335.892 327.353 336.407 327.075C336.922 326.797 337.49 326.59 338.111 326.454C338.739 326.312 339.369 326.199 340.002 326.116C340.831 326.01 341.503 325.93 342.017 325.877C342.538 325.818 342.917 325.72 343.154 325.584C343.397 325.448 343.518 325.211 343.518 324.874V324.803C343.518 323.927 343.278 323.246 342.799 322.761C342.325 322.275 341.606 322.033 340.641 322.033C339.641 322.033 338.857 322.252 338.289 322.69C337.721 323.128 337.321 323.595 337.09 324.092L335.102 323.382C335.457 322.554 335.93 321.908 336.522 321.447C337.12 320.979 337.771 320.654 338.475 320.47C339.185 320.281 339.884 320.186 340.57 320.186C341.008 320.186 341.511 320.239 342.08 320.346C342.654 320.446 343.207 320.657 343.74 320.976C344.278 321.296 344.725 321.778 345.08 322.423C345.435 323.068 345.613 323.933 345.613 325.016V334H343.518V332.153H343.411C343.269 332.449 343.033 332.766 342.701 333.103C342.37 333.441 341.929 333.728 341.378 333.964C340.828 334.201 340.156 334.32 339.363 334.32ZM339.683 332.438C340.511 332.438 341.21 332.275 341.778 331.949C342.352 331.624 342.784 331.203 343.074 330.689C343.37 330.174 343.518 329.632 343.518 329.064V327.146C343.429 327.253 343.234 327.35 342.932 327.439C342.636 327.522 342.293 327.596 341.902 327.661C341.517 327.72 341.142 327.774 340.775 327.821C340.414 327.862 340.121 327.898 339.896 327.928C339.351 327.999 338.842 328.114 338.369 328.274C337.901 328.428 337.522 328.661 337.232 328.975C336.948 329.283 336.806 329.703 336.806 330.236C336.806 330.964 337.075 331.514 337.614 331.887C338.159 332.254 338.848 332.438 339.683 332.438ZM354.941 339.398C353.929 339.398 353.059 339.268 352.331 339.007C351.603 338.753 350.997 338.415 350.511 337.995C350.032 337.581 349.65 337.137 349.366 336.663L351.035 335.491C351.225 335.74 351.464 336.024 351.754 336.344C352.044 336.669 352.441 336.95 352.944 337.187C353.453 337.43 354.119 337.551 354.941 337.551C356.042 337.551 356.951 337.285 357.667 336.752C358.383 336.219 358.741 335.385 358.741 334.249V331.479H358.564C358.41 331.727 358.191 332.035 357.907 332.402C357.628 332.763 357.226 333.086 356.699 333.37C356.178 333.648 355.474 333.787 354.586 333.787C353.485 333.787 352.497 333.527 351.621 333.006C350.751 332.485 350.062 331.727 349.553 330.733C349.049 329.739 348.798 328.531 348.798 327.111C348.798 325.714 349.044 324.498 349.535 323.462C350.026 322.42 350.71 321.615 351.586 321.047C352.462 320.473 353.474 320.186 354.622 320.186C355.51 320.186 356.214 320.334 356.735 320.63C357.261 320.92 357.664 321.251 357.942 321.624C358.226 321.991 358.445 322.293 358.599 322.53H358.812V320.364H360.836V334.391C360.836 335.562 360.57 336.515 360.037 337.249C359.511 337.989 358.8 338.531 357.907 338.874C357.019 339.223 356.03 339.398 354.941 339.398ZM354.87 331.905C355.711 331.905 356.421 331.712 357.001 331.328C357.581 330.943 358.022 330.39 358.324 329.668C358.626 328.946 358.777 328.081 358.777 327.075C358.777 326.093 358.629 325.226 358.333 324.474C358.037 323.722 357.599 323.134 357.019 322.707C356.439 322.281 355.723 322.068 354.87 322.068C353.983 322.068 353.243 322.293 352.651 322.743C352.065 323.193 351.624 323.796 351.328 324.554C351.038 325.312 350.893 326.152 350.893 327.075C350.893 328.022 351.041 328.86 351.337 329.588C351.639 330.31 352.083 330.878 352.669 331.292C353.261 331.701 353.994 331.905 354.87 331.905ZM370.389 334.284C369.075 334.284 367.942 333.994 366.989 333.414C366.042 332.828 365.311 332.011 364.796 330.964C364.287 329.91 364.032 328.685 364.032 327.288C364.032 325.892 364.287 324.661 364.796 323.595C365.311 322.524 366.027 321.689 366.944 321.092C367.868 320.488 368.945 320.186 370.176 320.186C370.886 320.186 371.587 320.304 372.28 320.541C372.972 320.778 373.603 321.163 374.171 321.695C374.739 322.222 375.192 322.92 375.529 323.79C375.866 324.661 376.035 325.732 376.035 327.004V327.892H365.524V326.081H373.904C373.904 325.312 373.751 324.625 373.443 324.021C373.141 323.418 372.709 322.941 372.147 322.592C371.59 322.243 370.933 322.068 370.176 322.068C369.341 322.068 368.619 322.275 368.01 322.69C367.406 323.098 366.941 323.631 366.616 324.288C366.29 324.945 366.127 325.649 366.127 326.401V327.608C366.127 328.638 366.305 329.511 366.66 330.227C367.021 330.937 367.521 331.479 368.161 331.852C368.8 332.219 369.542 332.402 370.389 332.402C370.939 332.402 371.436 332.325 371.88 332.171C372.33 332.011 372.718 331.775 373.043 331.461C373.369 331.141 373.62 330.745 373.798 330.271L375.822 330.839C375.609 331.526 375.251 332.13 374.748 332.651C374.245 333.165 373.623 333.568 372.884 333.858C372.144 334.142 371.312 334.284 370.389 334.284ZM388.881 323.418L386.999 323.95C386.881 323.637 386.706 323.332 386.475 323.036C386.251 322.734 385.943 322.485 385.552 322.29C385.162 322.095 384.661 321.997 384.052 321.997C383.217 321.997 382.522 322.19 381.966 322.574C381.415 322.953 381.14 323.435 381.14 324.021C381.14 324.542 381.329 324.953 381.708 325.255C382.087 325.557 382.679 325.809 383.484 326.01L385.508 326.507C386.727 326.803 387.636 327.256 388.233 327.865C388.831 328.469 389.13 329.247 389.13 330.2C389.13 330.982 388.905 331.68 388.455 332.295C388.011 332.911 387.39 333.396 386.591 333.751C385.792 334.107 384.863 334.284 383.803 334.284C382.412 334.284 381.261 333.982 380.35 333.379C379.438 332.775 378.861 331.893 378.619 330.733L380.607 330.236C380.797 330.97 381.155 331.52 381.681 331.887C382.214 332.254 382.91 332.438 383.768 332.438C384.744 332.438 385.52 332.23 386.094 331.816C386.674 331.396 386.964 330.893 386.964 330.307C386.964 329.833 386.798 329.437 386.467 329.117C386.135 328.792 385.626 328.549 384.94 328.389L382.667 327.857C381.418 327.561 380.501 327.102 379.915 326.48C379.335 325.853 379.045 325.069 379.045 324.128C379.045 323.358 379.261 322.678 379.693 322.086C380.131 321.494 380.726 321.029 381.477 320.692C382.235 320.355 383.093 320.186 384.052 320.186C385.401 320.186 386.461 320.482 387.23 321.074C388.005 321.666 388.556 322.447 388.881 323.418ZM45.9304 368.32C45.0663 368.32 44.2821 368.157 43.5778 367.831C42.8735 367.5 42.3142 367.023 41.8999 366.402C41.4856 365.775 41.2784 365.017 41.2784 364.129C41.2784 363.348 41.4323 362.715 41.7401 362.229C42.0478 361.738 42.4592 361.353 42.9741 361.075C43.489 360.797 44.0572 360.59 44.6786 360.454C45.306 360.312 45.9363 360.199 46.5696 360.116C47.3982 360.01 48.07 359.93 48.5849 359.877C49.1057 359.818 49.4845 359.72 49.7212 359.584C49.9639 359.448 50.0852 359.211 50.0852 358.874V358.803C50.0852 357.927 49.8455 357.246 49.3661 356.761C48.8926 356.275 48.1735 356.033 47.2088 356.033C46.2086 356.033 45.4244 356.252 44.8562 356.69C44.288 357.128 43.8885 357.595 43.6577 358.092L41.669 357.382C42.0241 356.554 42.4976 355.908 43.0895 355.447C43.6873 354.979 44.3383 354.654 45.0426 354.47C45.7528 354.281 46.4512 354.186 47.1378 354.186C47.5758 354.186 48.0788 354.239 48.647 354.346C49.2211 354.446 49.7745 354.657 50.3072 354.976C50.8458 355.296 51.2926 355.778 51.6477 356.423C52.0028 357.068 52.1804 357.933 52.1804 359.016V368H50.0852V366.153H49.9787C49.8366 366.449 49.5999 366.766 49.2685 367.103C48.937 367.441 48.4961 367.728 47.9457 367.964C47.3952 368.201 46.7235 368.32 45.9304 368.32ZM46.25 366.438C47.0786 366.438 47.777 366.275 48.3452 365.949C48.9193 365.624 49.3513 365.203 49.6413 364.689C49.9373 364.174 50.0852 363.632 50.0852 363.064V361.146C49.9964 361.253 49.8011 361.35 49.4993 361.439C49.2034 361.522 48.8601 361.596 48.4695 361.661C48.0848 361.72 47.7089 361.774 47.342 361.821C46.9809 361.862 46.688 361.898 46.4631 361.928C45.9186 361.999 45.4096 362.114 44.9361 362.274C44.4685 362.428 44.0897 362.661 43.7997 362.975C43.5156 363.283 43.3736 363.703 43.3736 364.236C43.3736 364.964 43.6429 365.514 44.1815 365.887C44.726 366.254 45.4155 366.438 46.25 366.438ZM58.0997 359.797V368H56.0045V354.364H58.0287V356.494H58.2062C58.5258 355.802 59.0112 355.246 59.6622 354.825C60.3132 354.399 61.1537 354.186 62.1835 354.186C63.1068 354.186 63.9147 354.375 64.6072 354.754C65.2996 355.127 65.8382 355.695 66.2229 356.459C66.6076 357.216 66.8 358.175 66.8 359.335V368H64.7048V359.477C64.7048 358.406 64.4266 357.571 63.8703 356.974C63.314 356.37 62.5505 356.068 61.5798 356.068C60.911 356.068 60.3132 356.213 59.7865 356.503C59.2657 356.793 58.8543 357.216 58.5525 357.773C58.2506 358.329 58.0997 359.004 58.0997 359.797ZM75.7777 368.284C74.6413 368.284 73.6381 367.997 72.7681 367.423C71.8981 366.843 71.2174 366.026 70.7262 364.973C70.235 363.913 69.9893 362.661 69.9893 361.217C69.9893 359.785 70.235 358.542 70.7262 357.489C71.2174 356.435 71.901 355.621 72.777 355.047C73.6529 354.473 74.665 354.186 75.8132 354.186C76.701 354.186 77.4023 354.334 77.9173 354.63C78.4381 354.92 78.8346 355.251 79.1069 355.624C79.3851 355.991 79.6011 356.293 79.755 356.53H79.9325V349.818H82.0277V368H80.0036V365.905H79.755C79.6011 366.153 79.3821 366.467 79.098 366.846C78.8139 367.219 78.4085 367.553 77.8817 367.849C77.355 368.139 76.6536 368.284 75.7777 368.284ZM76.0618 366.402C76.9022 366.402 77.6125 366.183 78.1925 365.745C78.7725 365.301 79.2134 364.689 79.5153 363.907C79.8171 363.12 79.968 362.212 79.968 361.182C79.968 360.164 79.8201 359.273 79.5241 358.51C79.2282 357.74 78.7902 357.142 78.2102 356.716C77.6302 356.284 76.9141 356.068 76.0618 356.068C75.174 356.068 74.4342 356.296 73.8423 356.752C73.2564 357.202 72.8155 357.814 72.5195 358.589C72.2295 359.359 72.0845 360.223 72.0845 361.182C72.0845 362.152 72.2325 363.034 72.5284 363.827C72.8303 364.615 73.2741 365.242 73.8601 365.71C74.4519 366.171 75.1858 366.402 76.0618 366.402ZM98.7269 368.284C97.4485 368.284 96.3477 367.982 95.4244 367.379C94.5011 366.775 93.7908 365.943 93.2937 364.884C92.7965 363.824 92.5479 362.614 92.5479 361.253C92.5479 359.868 92.8024 358.646 93.3114 357.586C93.8263 356.521 94.5425 355.689 95.4599 355.092C96.3832 354.488 97.4603 354.186 98.6914 354.186C99.6502 354.186 100.514 354.364 101.284 354.719C102.053 355.074 102.683 355.571 103.175 356.21C103.666 356.849 103.971 357.595 104.089 358.447H101.994C101.834 357.826 101.479 357.276 100.929 356.796C100.384 356.311 99.6502 356.068 98.7269 356.068C97.9102 356.068 97.194 356.281 96.5785 356.707C95.9689 357.128 95.4924 357.722 95.1491 358.492C94.8118 359.255 94.6431 360.152 94.6431 361.182C94.6431 362.235 94.8088 363.153 95.1403 363.934C95.4776 364.715 95.9511 365.322 96.5607 365.754C97.1763 366.186 97.8983 366.402 98.7269 366.402C99.2714 366.402 99.7656 366.307 100.21 366.118C100.653 365.929 101.029 365.656 101.337 365.301C101.645 364.946 101.864 364.52 101.994 364.023H104.089C103.971 364.828 103.678 365.553 103.21 366.198C102.749 366.837 102.136 367.346 101.373 367.725C100.615 368.098 99.7331 368.284 98.7269 368.284ZM112.692 368.284C111.461 368.284 110.381 367.991 109.451 367.405C108.528 366.819 107.806 366 107.285 364.946C106.77 363.893 106.513 362.661 106.513 361.253C106.513 359.832 106.77 358.592 107.285 357.533C107.806 356.474 108.528 355.651 109.451 355.065C110.381 354.479 111.461 354.186 112.692 354.186C113.923 354.186 115 354.479 115.923 355.065C116.853 355.651 117.575 356.474 118.089 357.533C118.61 358.592 118.871 359.832 118.871 361.253C118.871 362.661 118.61 363.893 118.089 364.946C117.575 366 116.853 366.819 115.923 367.405C115 367.991 113.923 368.284 112.692 368.284ZM112.692 366.402C113.627 366.402 114.396 366.162 115 365.683C115.604 365.203 116.051 364.573 116.341 363.792C116.631 363.011 116.776 362.164 116.776 361.253C116.776 360.341 116.631 359.492 116.341 358.705C116.051 357.918 115.604 357.281 115 356.796C114.396 356.311 113.627 356.068 112.692 356.068C111.757 356.068 110.987 356.311 110.384 356.796C109.78 357.281 109.333 357.918 109.043 358.705C108.753 359.492 108.608 360.341 108.608 361.253C108.608 362.164 108.753 363.011 109.043 363.792C109.333 364.573 109.78 365.203 110.384 365.683C110.987 366.162 111.757 366.402 112.692 366.402ZM124.164 349.818V368H122.069V349.818H124.164ZM132.014 368.32C131.15 368.32 130.366 368.157 129.662 367.831C128.957 367.5 128.398 367.023 127.984 366.402C127.57 365.775 127.362 365.017 127.362 364.129C127.362 363.348 127.516 362.715 127.824 362.229C128.132 361.738 128.543 361.353 129.058 361.075C129.573 360.797 130.141 360.59 130.763 360.454C131.39 360.312 132.02 360.199 132.654 360.116C133.482 360.01 134.154 359.93 134.669 359.877C135.19 359.818 135.568 359.72 135.805 359.584C136.048 359.448 136.169 359.211 136.169 358.874V358.803C136.169 357.927 135.93 357.246 135.45 356.761C134.977 356.275 134.258 356.033 133.293 356.033C132.293 356.033 131.508 356.252 130.94 356.69C130.372 357.128 129.972 357.595 129.742 358.092L127.753 357.382C128.108 356.554 128.582 355.908 129.173 355.447C129.771 354.979 130.422 354.654 131.127 354.47C131.837 354.281 132.535 354.186 133.222 354.186C133.66 354.186 134.163 354.239 134.731 354.346C135.305 354.446 135.858 354.657 136.391 354.976C136.93 355.296 137.377 355.778 137.732 356.423C138.087 357.068 138.264 357.933 138.264 359.016V368H136.169V366.153H136.063C135.921 366.449 135.684 366.766 135.352 367.103C135.021 367.441 134.58 367.728 134.03 367.964C133.479 368.201 132.807 368.32 132.014 368.32ZM132.334 366.438C133.163 366.438 133.861 366.275 134.429 365.949C135.003 365.624 135.435 365.203 135.725 364.689C136.021 364.174 136.169 363.632 136.169 363.064V361.146C136.08 361.253 135.885 361.35 135.583 361.439C135.287 361.522 134.944 361.596 134.553 361.661C134.169 361.72 133.793 361.774 133.426 361.821C133.065 361.862 132.772 361.898 132.547 361.928C132.003 361.999 131.494 362.114 131.02 362.274C130.552 362.428 130.174 362.661 129.884 362.975C129.6 363.283 129.458 363.703 129.458 364.236C129.458 364.964 129.727 365.514 130.265 365.887C130.81 366.254 131.499 366.438 132.334 366.438ZM142.373 368V349.818H144.468V356.53H144.645C144.799 356.293 145.012 355.991 145.285 355.624C145.563 355.251 145.959 354.92 146.474 354.63C146.995 354.334 147.699 354.186 148.587 354.186C149.735 354.186 150.747 354.473 151.623 355.047C152.499 355.621 153.183 356.435 153.674 357.489C154.165 358.542 154.411 359.785 154.411 361.217C154.411 362.661 154.165 363.913 153.674 364.973C153.183 366.026 152.502 366.843 151.632 367.423C150.762 367.997 149.759 368.284 148.623 368.284C147.747 368.284 147.045 368.139 146.519 367.849C145.992 367.553 145.586 367.219 145.302 366.846C145.018 366.467 144.799 366.153 144.645 365.905H144.397V368H142.373ZM144.432 361.182C144.432 362.212 144.583 363.12 144.885 363.907C145.187 364.689 145.628 365.301 146.208 365.745C146.788 366.183 147.498 366.402 148.339 366.402C149.214 366.402 149.945 366.171 150.531 365.71C151.123 365.242 151.567 364.615 151.863 363.827C152.165 363.034 152.316 362.152 152.316 361.182C152.316 360.223 152.168 359.359 151.872 358.589C151.582 357.814 151.141 357.202 150.549 356.752C149.963 356.296 149.226 356.068 148.339 356.068C147.486 356.068 146.77 356.284 146.19 356.716C145.61 357.142 145.172 357.74 144.876 358.51C144.58 359.273 144.432 360.164 144.432 361.182ZM163.156 368.284C161.925 368.284 160.844 367.991 159.915 367.405C158.992 366.819 158.27 366 157.749 364.946C157.234 363.893 156.977 362.661 156.977 361.253C156.977 359.832 157.234 358.592 157.749 357.533C158.27 356.474 158.992 355.651 159.915 355.065C160.844 354.479 161.925 354.186 163.156 354.186C164.387 354.186 165.464 354.479 166.387 355.065C167.316 355.651 168.038 356.474 168.553 357.533C169.074 358.592 169.335 359.832 169.335 361.253C169.335 362.661 169.074 363.893 168.553 364.946C168.038 366 167.316 366.819 166.387 367.405C165.464 367.991 164.387 368.284 163.156 368.284ZM163.156 366.402C164.091 366.402 164.86 366.162 165.464 365.683C166.068 365.203 166.514 364.573 166.804 363.792C167.094 363.011 167.239 362.164 167.239 361.253C167.239 360.341 167.094 359.492 166.804 358.705C166.514 357.918 166.068 357.281 165.464 356.796C164.86 356.311 164.091 356.068 163.156 356.068C162.22 356.068 161.451 356.311 160.847 356.796C160.244 357.281 159.797 357.918 159.507 358.705C159.217 359.492 159.072 360.341 159.072 361.253C159.072 362.164 159.217 363.011 159.507 363.792C159.797 364.573 160.244 365.203 160.847 365.683C161.451 366.162 162.22 366.402 163.156 366.402ZM172.533 368V354.364H174.557V356.423H174.699C174.948 355.749 175.397 355.201 176.048 354.781C176.7 354.361 177.433 354.151 178.25 354.151C178.404 354.151 178.596 354.154 178.827 354.159C179.058 354.165 179.233 354.174 179.351 354.186V356.317C179.28 356.299 179.117 356.272 178.863 356.237C178.614 356.195 178.351 356.175 178.073 356.175C177.41 356.175 176.818 356.314 176.297 356.592C175.782 356.864 175.374 357.243 175.072 357.728C174.776 358.208 174.628 358.755 174.628 359.371V368H172.533ZM185.847 368.32C184.983 368.32 184.199 368.157 183.495 367.831C182.79 367.5 182.231 367.023 181.817 366.402C181.403 365.775 181.195 365.017 181.195 364.129C181.195 363.348 181.349 362.715 181.657 362.229C181.965 361.738 182.376 361.353 182.891 361.075C183.406 360.797 183.974 360.59 184.596 360.454C185.223 360.312 185.853 360.199 186.487 360.116C187.315 360.01 187.987 359.93 188.502 359.877C189.023 359.818 189.401 359.72 189.638 359.584C189.881 359.448 190.002 359.211 190.002 358.874V358.803C190.002 357.927 189.763 357.246 189.283 356.761C188.81 356.275 188.091 356.033 187.126 356.033C186.126 356.033 185.341 356.252 184.773 356.69C184.205 357.128 183.805 357.595 183.575 358.092L181.586 357.382C181.941 356.554 182.415 355.908 183.006 355.447C183.604 354.979 184.255 354.654 184.96 354.47C185.67 354.281 186.368 354.186 187.055 354.186C187.493 354.186 187.996 354.239 188.564 354.346C189.138 354.446 189.691 354.657 190.224 354.976C190.763 355.296 191.21 355.778 191.565 356.423C191.92 357.068 192.097 357.933 192.097 359.016V368H190.002V366.153H189.896C189.754 366.449 189.517 366.766 189.185 367.103C188.854 367.441 188.413 367.728 187.863 367.964C187.312 368.201 186.64 368.32 185.847 368.32ZM186.167 366.438C186.996 366.438 187.694 366.275 188.262 365.949C188.836 365.624 189.268 365.203 189.558 364.689C189.854 364.174 190.002 363.632 190.002 363.064V361.146C189.913 361.253 189.718 361.35 189.416 361.439C189.12 361.522 188.777 361.596 188.386 361.661C188.002 361.72 187.626 361.774 187.259 361.821C186.898 361.862 186.605 361.898 186.38 361.928C185.836 361.999 185.327 362.114 184.853 362.274C184.386 362.428 184.007 362.661 183.717 362.975C183.433 363.283 183.291 363.703 183.291 364.236C183.291 364.964 183.56 365.514 184.098 365.887C184.643 366.254 185.332 366.438 186.167 366.438ZM201.852 354.364V356.139H194.785V354.364H201.852ZM196.845 351.097H198.94V364.094C198.94 364.686 199.026 365.129 199.197 365.425C199.375 365.715 199.6 365.911 199.872 366.011C200.15 366.106 200.443 366.153 200.751 366.153C200.982 366.153 201.171 366.142 201.319 366.118C201.467 366.088 201.586 366.065 201.674 366.047L202.1 367.929C201.958 367.982 201.76 368.036 201.506 368.089C201.251 368.148 200.929 368.178 200.538 368.178C199.946 368.178 199.366 368.05 198.798 367.796C198.236 367.541 197.768 367.154 197.395 366.633C197.028 366.112 196.845 365.455 196.845 364.662V351.097ZM210.574 368.284C209.26 368.284 208.127 367.994 207.174 367.414C206.227 366.828 205.496 366.011 204.981 364.964C204.472 363.91 204.218 362.685 204.218 361.288C204.218 359.892 204.472 358.661 204.981 357.595C205.496 356.524 206.212 355.689 207.13 355.092C208.053 354.488 209.13 354.186 210.361 354.186C211.072 354.186 211.773 354.304 212.465 354.541C213.158 354.778 213.788 355.163 214.356 355.695C214.925 356.222 215.377 356.92 215.715 357.79C216.052 358.661 216.221 359.732 216.221 361.004V361.892H205.709V360.081H214.09C214.09 359.312 213.936 358.625 213.628 358.021C213.327 357.418 212.894 356.941 212.332 356.592C211.776 356.243 211.119 356.068 210.361 356.068C209.527 356.068 208.805 356.275 208.195 356.69C207.591 357.098 207.127 357.631 206.801 358.288C206.476 358.945 206.313 359.649 206.313 360.401V361.608C206.313 362.638 206.491 363.511 206.846 364.227C207.207 364.937 207.707 365.479 208.346 365.852C208.985 366.219 209.728 366.402 210.574 366.402C211.125 366.402 211.622 366.325 212.066 366.171C212.516 366.011 212.903 365.775 213.229 365.461C213.554 365.141 213.806 364.745 213.983 364.271L216.008 364.839C215.795 365.526 215.436 366.13 214.933 366.651C214.43 367.165 213.809 367.568 213.069 367.858C212.329 368.142 211.498 368.284 210.574 368.284ZM229.529 368L225.374 354.364H227.575L230.523 364.804H230.665L233.577 354.364H235.814L238.691 364.768H238.833L241.78 354.364H243.982L239.827 368H237.767L234.784 357.524H234.571L231.588 368H229.529ZM246.752 368V354.364H248.847V368H246.752ZM247.817 352.091C247.409 352.091 247.056 351.952 246.76 351.674C246.47 351.395 246.325 351.061 246.325 350.67C246.325 350.28 246.47 349.945 246.76 349.667C247.056 349.389 247.409 349.25 247.817 349.25C248.225 349.25 248.575 349.389 248.865 349.667C249.16 349.945 249.308 350.28 249.308 350.67C249.308 351.061 249.16 351.395 248.865 351.674C248.575 351.952 248.225 352.091 247.817 352.091ZM258.615 354.364V356.139H251.548V354.364H258.615ZM253.608 351.097H255.703V364.094C255.703 364.686 255.789 365.129 255.96 365.425C256.138 365.715 256.363 365.911 256.635 366.011C256.913 366.106 257.206 366.153 257.514 366.153C257.745 366.153 257.934 366.142 258.082 366.118C258.23 366.088 258.348 366.065 258.437 366.047L258.863 367.929C258.721 367.982 258.523 368.036 258.268 368.089C258.014 368.148 257.691 368.178 257.301 368.178C256.709 368.178 256.129 368.05 255.561 367.796C254.998 367.541 254.531 367.154 254.158 366.633C253.791 366.112 253.608 365.455 253.608 364.662V351.097ZM264.154 359.797V368H262.059V349.818H264.154V356.494H264.332C264.652 355.79 265.131 355.231 265.77 354.816C266.415 354.396 267.273 354.186 268.345 354.186C269.274 354.186 270.088 354.373 270.786 354.745C271.485 355.112 272.026 355.678 272.411 356.441C272.801 357.199 272.997 358.163 272.997 359.335V368H270.902V359.477C270.902 358.394 270.62 357.557 270.058 356.965C269.502 356.367 268.729 356.068 267.741 356.068C267.054 356.068 266.439 356.213 265.894 356.503C265.356 356.793 264.93 357.216 264.616 357.773C264.308 358.329 264.154 359.004 264.154 359.797ZM285.21 373.114C284.855 373.114 284.539 373.084 284.26 373.025C283.982 372.972 283.79 372.918 283.683 372.865L284.216 371.018C284.725 371.149 285.175 371.196 285.566 371.161C285.956 371.125 286.302 370.95 286.604 370.637C286.912 370.329 287.193 369.829 287.448 369.136L287.838 368.071L282.796 354.364H285.068L288.833 365.23H288.975L292.739 354.364H295.012L289.223 369.989C288.963 370.693 288.64 371.276 288.256 371.738C287.871 372.205 287.424 372.551 286.915 372.776C286.412 373.001 285.844 373.114 285.21 373.114ZM302.828 368.284C301.597 368.284 300.517 367.991 299.588 367.405C298.665 366.819 297.943 366 297.422 364.946C296.907 363.893 296.65 362.661 296.65 361.253C296.65 359.832 296.907 358.592 297.422 357.533C297.943 356.474 298.665 355.651 299.588 355.065C300.517 354.479 301.597 354.186 302.828 354.186C304.06 354.186 305.137 354.479 306.06 355.065C306.989 355.651 307.711 356.474 308.226 357.533C308.747 358.592 309.007 359.832 309.007 361.253C309.007 362.661 308.747 363.893 308.226 364.946C307.711 366 306.989 366.819 306.06 367.405C305.137 367.991 304.06 368.284 302.828 368.284ZM302.828 366.402C303.764 366.402 304.533 366.162 305.137 365.683C305.74 365.203 306.187 364.573 306.477 363.792C306.767 363.011 306.912 362.164 306.912 361.253C306.912 360.341 306.767 359.492 306.477 358.705C306.187 357.918 305.74 357.281 305.137 356.796C304.533 356.311 303.764 356.068 302.828 356.068C301.893 356.068 301.124 356.311 300.52 356.796C299.917 357.281 299.47 357.918 299.18 358.705C298.89 359.492 298.745 360.341 298.745 361.253C298.745 362.164 298.89 363.011 299.18 363.792C299.47 364.573 299.917 365.203 300.52 365.683C301.124 366.162 301.893 366.402 302.828 366.402ZM320.799 362.425V354.364H322.895V368H320.799V365.692H320.657C320.338 366.384 319.841 366.973 319.166 367.458C318.491 367.938 317.639 368.178 316.609 368.178C315.757 368.178 314.999 367.991 314.336 367.618C313.674 367.239 313.153 366.671 312.774 365.914C312.395 365.15 312.206 364.188 312.206 363.028V354.364H314.301V362.886C314.301 363.881 314.579 364.674 315.135 365.266C315.698 365.857 316.414 366.153 317.284 366.153C317.805 366.153 318.334 366.02 318.873 365.754C319.417 365.488 319.873 365.079 320.24 364.529C320.613 363.978 320.799 363.277 320.799 362.425ZM326.732 368V354.364H328.756V356.423H328.898C329.147 355.749 329.597 355.201 330.248 354.781C330.899 354.361 331.633 354.151 332.449 354.151C332.603 354.151 332.796 354.154 333.026 354.159C333.257 354.165 333.432 354.174 333.55 354.186V356.317C333.479 356.299 333.316 356.272 333.062 356.237C332.813 356.195 332.55 356.175 332.272 356.175C331.609 356.175 331.017 356.314 330.496 356.592C329.981 356.864 329.573 357.243 329.271 357.728C328.975 358.208 328.827 358.755 328.827 359.371V368H326.732ZM348.995 354.364V356.139H341.929V354.364H348.995ZM343.988 351.097H346.084V364.094C346.084 364.686 346.169 365.129 346.341 365.425C346.519 365.715 346.743 365.911 347.016 366.011C347.294 366.106 347.587 366.153 347.895 366.153C348.125 366.153 348.315 366.142 348.463 366.118C348.611 366.088 348.729 366.065 348.818 366.047L349.244 367.929C349.102 367.982 348.904 368.036 348.649 368.089C348.395 368.148 348.072 368.178 347.682 368.178C347.09 368.178 346.51 368.05 345.941 367.796C345.379 367.541 344.912 367.154 344.539 366.633C344.172 366.112 343.988 365.455 343.988 364.662V351.097ZM357.718 368.284C356.404 368.284 355.271 367.994 354.318 367.414C353.371 366.828 352.64 366.011 352.125 364.964C351.616 363.91 351.361 362.685 351.361 361.288C351.361 359.892 351.616 358.661 352.125 357.595C352.64 356.524 353.356 355.689 354.273 355.092C355.197 354.488 356.274 354.186 357.505 354.186C358.215 354.186 358.916 354.304 359.609 354.541C360.301 354.778 360.932 355.163 361.5 355.695C362.068 356.222 362.521 356.92 362.858 357.79C363.196 358.661 363.364 359.732 363.364 361.004V361.892H352.853V360.081H361.234C361.234 359.312 361.08 358.625 360.772 358.021C360.47 357.418 360.038 356.941 359.476 356.592C358.919 356.243 358.262 356.068 357.505 356.068C356.67 356.068 355.948 356.275 355.339 356.69C354.735 357.098 354.27 357.631 353.945 358.288C353.619 358.945 353.457 359.649 353.457 360.401V361.608C353.457 362.638 353.634 363.511 353.989 364.227C354.35 364.937 354.85 365.479 355.49 365.852C356.129 366.219 356.872 366.402 357.718 366.402C358.268 366.402 358.766 366.325 359.209 366.171C359.659 366.011 360.047 365.775 360.372 365.461C360.698 365.141 360.949 364.745 361.127 364.271L363.151 364.839C362.938 365.526 362.58 366.13 362.077 366.651C361.574 367.165 360.952 367.568 360.213 367.858C359.473 368.142 358.641 368.284 357.718 368.284ZM370.564 368.32C369.7 368.32 368.916 368.157 368.212 367.831C367.507 367.5 366.948 367.023 366.534 366.402C366.119 365.775 365.912 365.017 365.912 364.129C365.912 363.348 366.066 362.715 366.374 362.229C366.682 361.738 367.093 361.353 367.608 361.075C368.123 360.797 368.691 360.59 369.312 360.454C369.94 360.312 370.57 360.199 371.203 360.116C372.032 360.01 372.704 359.93 373.219 359.877C373.739 359.818 374.118 359.72 374.355 359.584C374.598 359.448 374.719 359.211 374.719 358.874V358.803C374.719 357.927 374.479 357.246 374 356.761C373.526 356.275 372.807 356.033 371.843 356.033C370.842 356.033 370.058 356.252 369.49 356.69C368.922 357.128 368.522 357.595 368.291 358.092L366.303 357.382C366.658 356.554 367.131 355.908 367.723 355.447C368.321 354.979 368.972 354.654 369.676 354.47C370.387 354.281 371.085 354.186 371.772 354.186C372.21 354.186 372.713 354.239 373.281 354.346C373.855 354.446 374.408 354.657 374.941 354.976C375.48 355.296 375.926 355.778 376.282 356.423C376.637 357.068 376.814 357.933 376.814 359.016V368H374.719V366.153H374.612C374.47 366.449 374.234 366.766 373.902 367.103C373.571 367.441 373.13 367.728 372.579 367.964C372.029 368.201 371.357 368.32 370.564 368.32ZM370.884 366.438C371.712 366.438 372.411 366.275 372.979 365.949C373.553 365.624 373.985 365.203 374.275 364.689C374.571 364.174 374.719 363.632 374.719 363.064V361.146C374.63 361.253 374.435 361.35 374.133 361.439C373.837 361.522 373.494 361.596 373.103 361.661C372.719 361.72 372.343 361.774 371.976 361.821C371.615 361.862 371.322 361.898 371.097 361.928C370.552 361.999 370.043 362.114 369.57 362.274C369.102 362.428 368.724 362.661 368.434 362.975C368.149 363.283 368.007 363.703 368.007 364.236C368.007 364.964 368.277 365.514 368.815 365.887C369.36 366.254 370.049 366.438 370.884 366.438ZM380.638 368V354.364H382.662V356.494H382.84C383.124 355.766 383.583 355.201 384.216 354.799C384.849 354.39 385.61 354.186 386.498 354.186C387.397 354.186 388.146 354.39 388.744 354.799C389.347 355.201 389.818 355.766 390.155 356.494H390.297C390.647 355.79 391.17 355.231 391.869 354.816C392.567 354.396 393.405 354.186 394.381 354.186C395.6 354.186 396.598 354.568 397.373 355.331C398.148 356.089 398.536 357.27 398.536 358.874V368H396.441V358.874C396.441 357.867 396.166 357.148 395.615 356.716C395.065 356.284 394.417 356.068 393.671 356.068C392.712 356.068 391.969 356.358 391.443 356.938C390.916 357.512 390.653 358.24 390.653 359.122V368H388.522V358.661C388.522 357.885 388.27 357.261 387.767 356.787C387.264 356.308 386.616 356.068 385.823 356.068C385.278 356.068 384.769 356.213 384.296 356.503C383.828 356.793 383.45 357.196 383.16 357.711C382.876 358.22 382.733 358.808 382.733 359.477V368H380.638Z" fill="black"/>
</svg>
